<svg width="25" height="38" viewBox="0 0 25 38" fill="none" xmlns="http://www.w3.org/2000/svg">
<path d="M24.0839 31.5592C22.8262 36.2509 15.4404 38.5751 5.98931 37.8784C7.69088 34.7897 8.48002 30.0673 8.20875 24.568C12.9251 24.5803 16.9386 23.7788 19.6574 22.2499C23.1345 25.3324 24.8669 28.6431 24.0839 31.5592ZM1.21751 0.123302C1.05105 0.0801465 0.890762 0.0369907 0.730469 0C3.02389 3.66824 5.02139 8.29208 6.4147 13.4769C6.5565 14.001 6.68597 14.5188 6.80927 15.0429C12.1113 16.9664 16.5686 19.5187 19.6574 22.2499C21.5192 21.208 22.7707 19.8208 23.227 18.1316C24.8915 11.8925 15.0397 3.82853 1.21751 0.123302Z" fill="url(#paint0_linear_40_5518)"/>
<defs>
<linearGradient id="paint0_linear_40_5518" x1="12.4997" y1="38.0018" x2="12.4997" y2="0" gradientUnits="userSpaceOnUse">
<stop stop-color="#8A00FF"/>
<stop offset="1" stop-color="#00C6FF"/>
</linearGradient>
</defs>
</svg>
