<svg width="216" height="59" viewBox="0 0 216 59" fill="none" xmlns="http://www.w3.org/2000/svg">
<g clip-path="url(#clip0_76_850)">
<path d="M51.9442 42.3245H43.6035V23.6517H51.4052C52.6567 23.6517 53.7073 23.7704 54.5569 24.0171C55.4065 24.2637 56.1008 24.6018 56.6307 25.022C57.1605 25.4514 57.5442 25.9629 57.7817 26.5567C58.0192 27.1505 58.138 27.7992 58.138 28.5026C58.138 29.3156 57.937 30.0739 57.5442 30.7773C57.1514 31.4807 56.4936 32.0471 55.5892 32.4765C56.7586 32.8693 57.6173 33.4723 58.1471 34.2671C58.677 35.0618 58.9419 35.9388 58.9419 36.9072C58.9419 37.6472 58.814 38.3415 58.5765 38.9901C58.3299 39.6387 57.9279 40.2142 57.3706 40.7075C56.8134 41.2009 56.0917 41.5937 55.1964 41.886C54.3103 42.1784 53.2323 42.3245 51.9624 42.3245H51.9442ZM47.3399 31.1153H51.3412C52.2456 31.1153 52.9217 30.9144 53.3693 30.5215C53.8169 30.1287 54.0362 29.6171 54.0362 28.9868C54.0362 28.7036 53.9814 28.4386 53.8626 28.192C53.753 27.9453 53.5794 27.7444 53.3693 27.5799C53.1592 27.4155 52.876 27.2876 52.5471 27.1962C52.2182 27.1049 51.8345 27.0501 51.396 27.0501H47.3399V31.1062V31.1153ZM51.9442 38.917C52.4375 38.917 52.8577 38.8622 53.2231 38.7434C53.5886 38.6247 53.8809 38.4785 54.1275 38.2775C54.3742 38.0765 54.566 37.8299 54.6939 37.5375C54.8218 37.2452 54.8949 36.9346 54.8949 36.6149C54.8949 36.2769 54.831 35.9663 54.6939 35.6831C54.5569 35.3999 54.3742 35.1532 54.1275 34.9431C53.8809 34.733 53.5794 34.5777 53.2231 34.4589C52.8669 34.3401 52.4375 34.2853 51.9442 34.2853H47.349V38.9079H51.9442V38.917Z" fill="#0D0F2B"/>
<path d="M72.3801 40.8446C72.1335 41.0364 71.8229 41.2374 71.4574 41.4384C71.092 41.6485 70.6627 41.8404 70.1785 42.0231C69.6943 42.2058 69.1644 42.3519 68.5889 42.4616C68.0134 42.5712 67.4104 42.6351 66.7892 42.6351C65.693 42.6351 64.6972 42.4524 63.8111 42.0779C62.9249 41.7125 62.1667 41.2009 61.5363 40.5614C60.9151 39.9219 60.4218 39.1637 60.0747 38.3049C59.7275 37.4462 59.554 36.5144 59.554 35.5095C59.554 34.5046 59.7367 33.6002 60.0929 32.7323C60.4492 31.8645 60.9517 31.1062 61.582 30.4759C62.2124 29.8455 62.9797 29.3431 63.8659 28.9685C64.752 28.6031 65.7295 28.4113 66.7892 28.4113C67.9037 28.4113 68.9086 28.594 69.7856 28.9685C70.6627 29.3339 71.4118 29.8364 72.0147 30.4759C72.6176 31.1062 73.0835 31.8553 73.3941 32.714C73.7048 33.5728 73.8601 34.5046 73.8601 35.5095C73.8601 35.7196 73.8509 35.9297 73.8327 36.149C73.8144 36.3682 73.787 36.5783 73.7504 36.7885L63.3908 36.7611C63.5005 37.2178 63.6832 37.6106 63.9116 37.9395C64.1399 38.2684 64.4231 38.5516 64.752 38.7891C65.0718 39.0266 65.4372 39.2093 65.83 39.3281C66.2228 39.4469 66.6431 39.5108 67.0816 39.5108C67.5749 39.5108 68.0134 39.4651 68.3971 39.3647C68.7899 39.2733 69.1188 39.1637 69.3928 39.0358C69.6669 38.917 69.9044 38.7891 70.1054 38.6521C70.3064 38.5242 70.4617 38.3963 70.5713 38.2867L72.3892 40.8446H72.3801ZM69.9135 33.2256C69.7582 32.8602 69.5481 32.5405 69.2649 32.2847C68.9817 32.0289 68.6437 31.8279 68.2418 31.6909C67.8489 31.5538 67.4013 31.4808 66.908 31.4808C66.4147 31.4808 66.0036 31.5447 65.6016 31.6817C65.2088 31.8188 64.8525 32.0106 64.5419 32.2664C64.2313 32.5222 63.9664 32.8328 63.7654 33.2074C63.5553 33.5728 63.4091 33.9839 63.3086 34.4406H70.1785C70.1602 34.0021 70.078 33.6002 69.9227 33.2348L69.9135 33.2256Z" fill="#0D0F2B"/>
<path d="M76.354 28.6396L77.1488 24.9489H80.0173V28.6396H83.909V31.5904H80.0173V37.1539C80.0173 37.7568 80.0904 38.2318 80.2274 38.5699C80.3736 38.9079 80.602 39.1454 80.9217 39.2824C81.2414 39.4195 81.6525 39.456 82.1458 39.4103C82.6392 39.3646 83.2238 39.255 83.909 39.0814V42.087C82.7579 42.4067 81.7165 42.5712 80.7847 42.5803C79.8528 42.5895 79.0672 42.4524 78.4186 42.1692C77.77 41.886 77.2584 41.4384 76.9021 40.8355C76.5458 40.2325 76.3631 39.4834 76.3631 38.5973V31.5904H74.0884V28.6396H76.3631H76.354Z" fill="#0D0F2B"/>
<path d="M97.3015 40.8446C97.0548 41.0364 96.7442 41.2374 96.3788 41.4384C96.0134 41.6485 95.584 41.8404 95.0999 42.0231C94.6157 42.2058 94.0858 42.3519 93.5103 42.4616C92.9348 42.5712 92.3318 42.6351 91.7106 42.6351C90.6144 42.6351 89.6186 42.4524 88.7325 42.0779C87.8463 41.7125 87.0881 41.2009 86.4577 40.5614C85.8365 39.9219 85.3432 39.1637 84.9961 38.3049C84.6489 37.4462 84.4753 36.5144 84.4753 35.5095C84.4753 34.5046 84.658 33.6002 85.0143 32.7323C85.3706 31.8645 85.8731 31.1062 86.5034 30.4759C87.1338 29.8455 87.9011 29.3431 88.7873 28.9685C89.6734 28.6031 90.6509 28.4113 91.7106 28.4113C92.8251 28.4113 93.83 28.594 94.707 28.9685C95.584 29.3339 96.3331 29.8364 96.9361 30.4759C97.539 31.1062 98.0049 31.8553 98.3155 32.714C98.6261 33.5728 98.7814 34.5046 98.7814 35.5095C98.7814 35.7196 98.7723 35.9297 98.754 36.149C98.7358 36.3682 98.7084 36.5783 98.6718 36.7885L88.3122 36.7611C88.4219 37.2178 88.6046 37.6106 88.8329 37.9395C89.0613 38.2684 89.3445 38.5516 89.6734 38.7891C89.9932 39.0266 90.3586 39.2093 90.7514 39.3281C91.1442 39.4469 91.5644 39.5108 92.0029 39.5108C92.4963 39.5108 92.9348 39.4651 93.3185 39.3647C93.7113 39.2733 94.0401 39.1637 94.3142 39.0358C94.5883 38.917 94.8258 38.7891 95.0268 38.6521C95.2278 38.5242 95.3831 38.3963 95.4927 38.2867L97.3106 40.8446H97.3015ZM94.8258 33.2256C94.6705 32.8602 94.4604 32.5405 94.1772 32.2847C93.894 32.0289 93.556 31.8279 93.154 31.6909C92.7612 31.5538 92.3136 31.4808 91.8202 31.4808C91.3269 31.4808 90.9158 31.5447 90.5139 31.6817C90.121 31.8188 89.7648 32.0106 89.4542 32.2664C89.1436 32.5222 88.8786 32.8328 88.6776 33.2074C88.4675 33.5728 88.3214 33.9839 88.2209 34.4406H95.0907C95.0725 34.0021 94.9902 33.6002 94.8349 33.2348L94.8258 33.2256Z" fill="#0D0F2B"/>
<path d="M111.178 40.7076C110.594 41.2922 109.908 41.7581 109.123 42.0962C108.337 42.4342 107.469 42.6077 106.528 42.6077C105.587 42.6077 104.619 42.4159 103.76 42.0413C102.902 41.6668 102.152 41.1552 101.522 40.5066C100.892 39.8671 100.389 39.1089 100.015 38.2501C99.6494 37.3914 99.4575 36.4687 99.4575 35.4821C99.4575 34.4955 99.6402 33.5728 100.015 32.7141C100.38 31.8553 100.883 31.0971 101.522 30.4576C102.152 29.8181 102.902 29.3065 103.76 28.9228C104.619 28.5392 105.542 28.3564 106.528 28.3564C107.378 28.3564 108.164 28.5026 108.885 28.7858C109.607 29.069 110.237 29.4618 110.785 29.946L110.813 21.8885H114.421V42.3245H111.297L111.187 40.7076H111.178ZM103.413 37.0168C103.632 37.4919 103.916 37.903 104.263 38.2684C104.61 38.6247 105.021 38.9079 105.487 39.118C105.953 39.3281 106.455 39.4286 107.003 39.4286C107.552 39.4286 108.091 39.3281 108.566 39.118C109.041 38.9079 109.452 38.6247 109.799 38.2684C110.146 37.9121 110.42 37.4919 110.612 37.0168C110.804 36.5418 110.895 36.0302 110.895 35.4821C110.895 34.934 110.795 34.4224 110.594 33.9473C110.393 33.4723 110.119 33.0612 109.771 32.6958C109.424 32.3395 109.013 32.0563 108.547 31.8462C108.081 31.6361 107.57 31.5356 107.003 31.5356C106.437 31.5356 105.944 31.6361 105.487 31.8462C105.021 32.0563 104.619 32.3395 104.263 32.6958C103.916 33.0521 103.632 33.4723 103.413 33.9473C103.194 34.4224 103.084 34.934 103.084 35.4821C103.084 36.0302 103.194 36.5418 103.413 37.0168Z" fill="#0D0F2B"/>
<path d="M120.405 42.3245H116.769V28.6396H119.894L120.04 30.7408C120.323 30.3023 120.643 29.9095 120.99 29.5623C121.337 29.2152 121.73 28.932 122.168 28.7219C122.607 28.5117 123.073 28.393 123.584 28.3564C124.096 28.3199 124.644 28.393 125.229 28.5848L125.201 32.0746C124.58 31.8645 123.977 31.7731 123.402 31.8096C122.826 31.837 122.314 31.9923 121.867 32.2664C121.419 32.5405 121.063 32.9333 120.798 33.4449C120.533 33.9565 120.405 34.5777 120.405 35.3177V42.3245Z" fill="#0D0F2B"/>
<path d="M127.841 33.0977L125.822 30.7133C126.014 30.5215 126.288 30.2931 126.663 30.0191C127.028 29.745 127.476 29.4801 127.987 29.2425C128.499 28.9959 129.084 28.7858 129.732 28.6213C130.381 28.4478 131.103 28.3655 131.879 28.3655C132.711 28.3655 133.505 28.4752 134.245 28.6944C134.994 28.9137 135.643 29.2517 136.2 29.6993C136.758 30.1561 137.196 30.7225 137.516 31.4168C137.836 32.1111 138 32.9333 138 33.9016V42.3336H134.876L134.62 40.5157C134.373 40.8354 134.108 41.1278 133.807 41.3927C133.514 41.6576 133.186 41.8769 132.811 42.0596C132.436 42.2423 132.044 42.3793 131.623 42.4707C131.194 42.562 130.737 42.6168 130.244 42.6168C129.522 42.6168 128.883 42.5072 128.316 42.288C127.75 42.0687 127.266 41.7764 126.873 41.3927C126.48 41.0181 126.17 40.5705 125.969 40.0772C125.768 39.5839 125.658 39.0357 125.658 38.4419C125.658 37.8481 125.777 37.2726 126.023 36.7519C126.27 36.2312 126.654 35.7835 127.174 35.3998C127.695 35.0253 128.353 34.7147 129.148 34.4954C129.942 34.267 130.893 34.1574 131.989 34.1574H134.547V33.9564C134.547 33.1616 134.309 32.5496 133.834 32.1111C133.359 31.6726 132.656 31.4625 131.706 31.4625C131.267 31.4625 130.847 31.5173 130.445 31.636C130.034 31.7457 129.668 31.8918 129.34 32.0654C129.011 32.239 128.709 32.4125 128.444 32.6044C128.179 32.7962 127.978 32.9607 127.85 33.116L127.841 33.0977ZM134.538 36.3865L132.208 36.3591C131.185 36.3591 130.454 36.5418 130.025 36.9163C129.586 37.2817 129.376 37.7202 129.376 38.2044C129.376 38.4145 129.422 38.6155 129.504 38.8165C129.586 39.0175 129.714 39.191 129.869 39.3372C130.034 39.4925 130.235 39.6204 130.491 39.7209C130.746 39.8214 131.048 39.8762 131.386 39.8762C131.742 39.8762 132.117 39.8031 132.491 39.6478C132.866 39.4925 133.204 39.2824 133.496 39.0083C133.789 38.7343 134.035 38.3963 134.236 38.0034C134.437 37.6106 134.538 37.1538 134.538 36.6423V36.3865Z" fill="#0D0F2B"/>
<path d="M34.6051 46.7643C32.7414 53.7164 21.7972 57.1605 7.79253 56.1282C10.3139 51.5513 11.4833 44.5536 11.0813 36.4047C18.0699 36.423 24.0171 35.2354 28.0458 32.9698C33.1982 37.5375 35.7653 42.4433 34.6051 46.7643ZM0.7217 0.182709C0.475043 0.118761 0.237522 0.0548127 0 0C3.39838 5.43559 6.35827 12.2872 8.42288 19.9701C8.63299 20.7466 8.82484 21.514 9.00755 22.2905C16.864 25.1407 23.469 28.9228 28.0458 32.9698C30.8047 31.4259 32.6592 29.3704 33.3352 26.8673C35.8018 17.6223 21.2034 5.67311 0.7217 0.182709Z" fill="url(#paint0_linear_76_850)"/>
</g>
<path d="M49.21 50.13H47.08V56H46.33V50.13H44.19V49.42H49.21V50.13ZM50.7327 56H50.0027V48.8H50.7327V52.14C50.9194 51.86 51.1461 51.6367 51.4127 51.47C51.6861 51.2967 51.9927 51.21 52.3327 51.21C52.6994 51.21 53.0061 51.27 53.2527 51.39C53.5061 51.5033 53.7094 51.66 53.8627 51.86C54.0161 52.06 54.1261 52.2933 54.1927 52.56C54.2594 52.8267 54.2927 53.11 54.2927 53.41V56H53.5627V53.56C53.5627 53.3333 53.5461 53.12 53.5127 52.92C53.4794 52.72 53.4161 52.5467 53.3227 52.4C53.2294 52.2467 53.1027 52.1267 52.9427 52.04C52.7894 51.9533 52.5861 51.91 52.3327 51.91C52.1061 51.91 51.8927 51.96 51.6927 52.06C51.4994 52.1533 51.3294 52.28 51.1827 52.44C51.0427 52.6 50.9327 52.7867 50.8527 53C50.7727 53.2067 50.7327 53.4233 50.7327 53.65V56ZM59.5087 55.52C59.4087 55.5867 59.2987 55.6533 59.1787 55.72C59.0653 55.7867 58.9353 55.8467 58.7887 55.9C58.6487 55.9533 58.4887 55.9967 58.3087 56.03C58.1353 56.07 57.9387 56.09 57.7187 56.09C57.332 56.09 56.9853 56.0267 56.6787 55.9C56.3787 55.7667 56.1253 55.59 55.9187 55.37C55.712 55.15 55.552 54.8933 55.4387 54.6C55.332 54.3 55.2787 53.9833 55.2787 53.65C55.2787 53.3167 55.3387 53.0033 55.4587 52.71C55.5787 52.41 55.7453 52.15 55.9587 51.93C56.172 51.71 56.4287 51.5367 56.7287 51.41C57.0287 51.2767 57.3587 51.21 57.7187 51.21C58.0987 51.21 58.432 51.2767 58.7187 51.41C59.012 51.5367 59.252 51.71 59.4387 51.93C59.632 52.15 59.7753 52.41 59.8687 52.71C59.9687 53.0033 60.0187 53.3167 60.0187 53.65C60.0187 53.7567 60.0087 53.87 59.9887 53.99H56.0987C56.172 54.41 56.3553 54.75 56.6487 55.01C56.9487 55.2633 57.3053 55.39 57.7187 55.39C58.0653 55.39 58.3487 55.3433 58.5687 55.25C58.7887 55.15 58.9753 55.04 59.1287 54.92L59.5087 55.52ZM59.2287 53.32C59.2287 52.8667 59.0887 52.52 58.8087 52.28C58.5353 52.0333 58.172 51.91 57.7187 51.91C57.2653 51.91 56.8953 52.0433 56.6087 52.31C56.3287 52.57 56.1553 52.9067 56.0887 53.32H59.2287ZM64.307 56H63.577V48.8H64.307V56ZM65.2982 53.65C65.2982 53.3167 65.3615 53.0033 65.4882 52.71C65.6149 52.41 65.7882 52.15 66.0082 51.93C66.2282 51.71 66.4849 51.5367 66.7782 51.41C67.0782 51.2767 67.3982 51.21 67.7382 51.21C68.0782 51.21 68.3949 51.2767 68.6882 51.41C68.9882 51.5367 69.2482 51.71 69.4682 51.93C69.6882 52.15 69.8615 52.41 69.9882 52.71C70.1149 53.0033 70.1782 53.3167 70.1782 53.65C70.1782 53.9833 70.1149 54.3 69.9882 54.6C69.8615 54.8933 69.6882 55.15 69.4682 55.37C69.2482 55.59 68.9882 55.7667 68.6882 55.9C68.3949 56.0267 68.0782 56.09 67.7382 56.09C67.3982 56.09 67.0782 56.0267 66.7782 55.9C66.4849 55.7667 66.2282 55.59 66.0082 55.37C65.7882 55.15 65.6149 54.8933 65.4882 54.6C65.3615 54.3 65.2982 53.9833 65.2982 53.65ZM66.0482 53.65C66.0482 53.89 66.0915 54.1167 66.1782 54.33C66.2649 54.5367 66.3815 54.72 66.5282 54.88C66.6815 55.04 66.8615 55.1667 67.0682 55.26C67.2749 55.3467 67.4982 55.39 67.7382 55.39C67.9782 55.39 68.2015 55.3467 68.4082 55.26C68.6149 55.1667 68.7915 55.04 68.9382 54.88C69.0915 54.72 69.2115 54.5367 69.2982 54.33C69.3849 54.1167 69.4282 53.89 69.4282 53.65C69.4282 53.41 69.3849 53.1867 69.2982 52.98C69.2115 52.7667 69.0915 52.58 68.9382 52.42C68.7915 52.26 68.6149 52.1367 68.4082 52.05C68.2015 51.9567 67.9782 51.91 67.7382 51.91C67.4982 51.91 67.2749 51.9567 67.0682 52.05C66.8615 52.1367 66.6815 52.26 66.5282 52.42C66.3815 52.58 66.2649 52.7667 66.1782 52.98C66.0915 53.1867 66.0482 53.41 66.0482 53.65ZM71.6134 51.3L71.7834 50H72.3434V51.3H73.8534V51.96H72.3434V54.54C72.3434 54.8533 72.3934 55.07 72.4934 55.19C72.6001 55.3033 72.7601 55.36 72.9734 55.36C73.0868 55.36 73.2168 55.3467 73.3634 55.32C73.5101 55.2933 73.6734 55.26 73.8534 55.22V55.92C73.6601 55.98 73.4768 56.0233 73.3034 56.05C73.1368 56.0767 72.9834 56.09 72.8434 56.09C72.4034 56.09 72.0868 55.9733 71.8934 55.74C71.7068 55.5 71.6134 55.19 71.6134 54.81V51.96H70.6634V51.3H71.6134ZM75.3439 51.3L75.5139 50H76.0739V51.3H77.5839V51.96H76.0739V54.54C76.0739 54.8533 76.1239 55.07 76.2239 55.19C76.3306 55.3033 76.4906 55.36 76.7039 55.36C76.8172 55.36 76.9472 55.3467 77.0939 55.32C77.2406 55.2933 77.4039 55.26 77.5839 55.22V55.92C77.3906 55.98 77.2072 56.0233 77.0339 56.05C76.8672 56.0767 76.7139 56.09 76.5739 56.09C76.1339 56.09 75.8172 55.9733 75.6239 55.74C75.4372 55.5 75.3439 55.19 75.3439 54.81V51.96H74.3939V51.3H75.3439ZM78.2279 53.65C78.2279 53.3167 78.2912 53.0033 78.4179 52.71C78.5446 52.41 78.7179 52.15 78.9379 51.93C79.1579 51.71 79.4146 51.5367 79.7079 51.41C80.0079 51.2767 80.3279 51.21 80.6679 51.21C81.0079 51.21 81.3246 51.2767 81.6179 51.41C81.9179 51.5367 82.1779 51.71 82.3979 51.93C82.6179 52.15 82.7912 52.41 82.9179 52.71C83.0446 53.0033 83.1079 53.3167 83.1079 53.65C83.1079 53.9833 83.0446 54.3 82.9179 54.6C82.7912 54.8933 82.6179 55.15 82.3979 55.37C82.1779 55.59 81.9179 55.7667 81.6179 55.9C81.3246 56.0267 81.0079 56.09 80.6679 56.09C80.3279 56.09 80.0079 56.0267 79.7079 55.9C79.4146 55.7667 79.1579 55.59 78.9379 55.37C78.7179 55.15 78.5446 54.8933 78.4179 54.6C78.2912 54.3 78.2279 53.9833 78.2279 53.65ZM78.9779 53.65C78.9779 53.89 79.0212 54.1167 79.1079 54.33C79.1946 54.5367 79.3112 54.72 79.4579 54.88C79.6112 55.04 79.7912 55.1667 79.9979 55.26C80.2046 55.3467 80.4279 55.39 80.6679 55.39C80.9079 55.39 81.1312 55.3467 81.3379 55.26C81.5446 55.1667 81.7212 55.04 81.8679 54.88C82.0212 54.72 82.1412 54.5367 82.2279 54.33C82.3146 54.1167 82.3579 53.89 82.3579 53.65C82.3579 53.41 82.3146 53.1867 82.2279 52.98C82.1412 52.7667 82.0212 52.58 81.8679 52.42C81.7212 52.26 81.5446 52.1367 81.3379 52.05C81.1312 51.9567 80.9079 51.91 80.6679 51.91C80.4279 51.91 80.2046 51.9567 79.9979 52.05C79.7912 52.1367 79.6112 52.26 79.4579 52.42C79.3112 52.58 79.1946 52.7667 79.1079 52.98C79.0212 53.1867 78.9779 53.41 78.9779 53.65ZM89.082 50.74C89.082 50.56 89.0186 50.4067 88.892 50.28C88.7653 50.1533 88.612 50.09 88.432 50.09C88.2586 50.09 88.1053 50.1533 87.972 50.28C87.8453 50.4067 87.782 50.56 87.782 50.74C87.782 50.82 87.7986 50.9033 87.832 50.99C87.872 51.07 87.932 51.1633 88.012 51.27C88.092 51.3767 88.1953 51.5033 88.322 51.65C88.4553 51.79 88.6186 51.96 88.812 52.16L90.852 54.29C90.9386 54.11 90.982 53.8933 90.982 53.64H91.732C91.732 54.1067 91.622 54.5167 91.402 54.87L92.482 56H91.482L90.922 55.42C90.6686 55.6333 90.372 55.7967 90.032 55.91C89.692 56.0167 89.3386 56.07 88.972 56.07C88.632 56.07 88.3053 56.0233 87.992 55.93C87.6853 55.83 87.412 55.6867 87.172 55.5C86.932 55.3133 86.7386 55.08 86.592 54.8C86.452 54.52 86.382 54.1967 86.382 53.83C86.382 53.41 86.4953 53.04 86.722 52.72C86.9486 52.3933 87.232 52.1267 87.572 51.92C87.472 51.8067 87.3853 51.7033 87.312 51.61C87.2453 51.51 87.1886 51.4167 87.142 51.33C87.102 51.2367 87.072 51.1433 87.052 51.05C87.032 50.95 87.022 50.8433 87.022 50.73C87.022 50.5367 87.0586 50.3567 87.132 50.19C87.212 50.0167 87.3153 49.8667 87.442 49.74C87.5753 49.6133 87.7253 49.5167 87.892 49.45C88.0653 49.3767 88.2486 49.34 88.442 49.34C88.6353 49.34 88.8153 49.3767 88.982 49.45C89.1553 49.5233 89.3053 49.6233 89.432 49.75C89.5586 49.8767 89.6586 50.0233 89.732 50.19C89.8053 50.3567 89.842 50.5367 89.842 50.73L89.082 50.74ZM87.132 53.83C87.132 54.0833 87.1853 54.3033 87.292 54.49C87.3986 54.6767 87.5386 54.83 87.712 54.95C87.8853 55.07 88.0786 55.16 88.292 55.22C88.512 55.28 88.7353 55.31 88.962 55.31C89.2153 55.31 89.4686 55.2733 89.722 55.2C89.9753 55.1267 90.1986 55.0133 90.392 54.86L88.112 52.5C87.992 52.56 87.872 52.6333 87.752 52.72C87.632 52.8067 87.5253 52.9067 87.432 53.02C87.3453 53.1333 87.272 53.2567 87.212 53.39C87.1586 53.5233 87.132 53.67 87.132 53.83ZM96.7174 51.3L96.7574 52.03C96.9508 51.7767 97.1908 51.5767 97.4774 51.43C97.7708 51.2833 98.1008 51.21 98.4674 51.21C98.8074 51.21 99.1208 51.2767 99.4074 51.41C99.7008 51.5367 99.9541 51.71 100.167 51.93C100.387 52.15 100.557 52.41 100.677 52.71C100.804 53.0033 100.867 53.3167 100.867 53.65C100.867 53.9833 100.804 54.3 100.677 54.6C100.557 54.8933 100.387 55.15 100.167 55.37C99.9541 55.59 99.7008 55.7667 99.4074 55.9C99.1208 56.0267 98.8074 56.09 98.4674 56.09C98.1141 56.09 97.7974 56.0233 97.5174 55.89C97.2374 55.75 97.0008 55.5633 96.8074 55.33L96.7974 58.5H96.0674V51.3H96.7174ZM100.117 53.65C100.117 53.41 100.071 53.1867 99.9774 52.98C99.8908 52.7667 99.7708 52.58 99.6174 52.42C99.4641 52.26 99.2841 52.1367 99.0774 52.05C98.8774 51.9567 98.6608 51.91 98.4274 51.91C98.1608 51.91 97.9208 51.9567 97.7074 52.05C97.5008 52.1367 97.3241 52.26 97.1774 52.42C97.0308 52.5733 96.9174 52.7567 96.8374 52.97C96.7641 53.1833 96.7274 53.41 96.7274 53.65C96.7274 53.8967 96.7674 54.1267 96.8474 54.34C96.9274 54.5467 97.0408 54.73 97.1874 54.89C97.3408 55.0433 97.5208 55.1667 97.7274 55.26C97.9341 55.3467 98.1674 55.39 98.4274 55.39C98.6608 55.39 98.8774 55.3467 99.0774 55.26C99.2841 55.1667 99.4641 55.04 99.6174 54.88C99.7708 54.72 99.8908 54.5367 99.9774 54.33C100.071 54.1167 100.117 53.89 100.117 53.65ZM102.578 56H101.848V51.3H102.488L102.518 52.15C102.672 51.8767 102.862 51.6533 103.088 51.48C103.322 51.3 103.588 51.21 103.888 51.21C104.055 51.21 104.222 51.24 104.388 51.3V52.05C104.228 52.01 104.082 51.99 103.948 51.99C103.735 51.99 103.542 52.0367 103.368 52.13C103.202 52.2167 103.058 52.3367 102.938 52.49C102.825 52.6367 102.735 52.81 102.668 53.01C102.608 53.21 102.578 53.4233 102.578 53.65V56ZM108.981 55.52C108.881 55.5867 108.771 55.6533 108.651 55.72C108.538 55.7867 108.408 55.8467 108.261 55.9C108.121 55.9533 107.961 55.9967 107.781 56.03C107.608 56.07 107.411 56.09 107.191 56.09C106.805 56.09 106.458 56.0267 106.151 55.9C105.851 55.7667 105.598 55.59 105.391 55.37C105.185 55.15 105.025 54.8933 104.911 54.6C104.805 54.3 104.751 53.9833 104.751 53.65C104.751 53.3167 104.811 53.0033 104.931 52.71C105.051 52.41 105.218 52.15 105.431 51.93C105.645 51.71 105.901 51.5367 106.201 51.41C106.501 51.2767 106.831 51.21 107.191 51.21C107.571 51.21 107.905 51.2767 108.191 51.41C108.485 51.5367 108.725 51.71 108.911 51.93C109.105 52.15 109.248 52.41 109.341 52.71C109.441 53.0033 109.491 53.3167 109.491 53.65C109.491 53.7567 109.481 53.87 109.461 53.99H105.571C105.645 54.41 105.828 54.75 106.121 55.01C106.421 55.2633 106.778 55.39 107.191 55.39C107.538 55.39 107.821 55.3433 108.041 55.25C108.261 55.15 108.448 55.04 108.601 54.92L108.981 55.52ZM108.701 53.32C108.701 52.8667 108.561 52.52 108.281 52.28C108.008 52.0333 107.645 51.91 107.191 51.91C106.738 51.91 106.368 52.0433 106.081 52.31C105.801 52.57 105.628 52.9067 105.561 53.32H108.701ZM114.242 55.27C114.049 55.5233 113.805 55.7233 113.512 55.87C113.225 56.0167 112.899 56.09 112.532 56.09C112.192 56.09 111.875 56.0267 111.582 55.9C111.295 55.7667 111.042 55.59 110.822 55.37C110.609 55.15 110.439 54.8933 110.312 54.6C110.192 54.3 110.132 53.9833 110.132 53.65C110.132 53.3167 110.192 53.0033 110.312 52.71C110.439 52.41 110.609 52.15 110.822 51.93C111.042 51.71 111.295 51.5367 111.582 51.41C111.875 51.2767 112.192 51.21 112.532 51.21C112.885 51.21 113.202 51.28 113.482 51.42C113.762 51.5533 113.999 51.7367 114.192 51.97L114.202 48.8H114.932V56H114.282L114.242 55.27ZM110.882 53.65C110.882 53.89 110.925 54.1167 111.012 54.33C111.105 54.5367 111.229 54.72 111.382 54.88C111.535 55.04 111.712 55.1667 111.912 55.26C112.119 55.3467 112.339 55.39 112.572 55.39C112.839 55.39 113.075 55.3467 113.282 55.26C113.495 55.1667 113.675 55.0433 113.822 54.89C113.969 54.73 114.079 54.5433 114.152 54.33C114.232 54.1167 114.272 53.89 114.272 53.65C114.272 53.4033 114.232 53.1767 114.152 52.97C114.072 52.7567 113.955 52.5733 113.802 52.42C113.655 52.26 113.479 52.1367 113.272 52.05C113.065 51.9567 112.832 51.91 112.572 51.91C112.339 51.91 112.119 51.9567 111.912 52.05C111.712 52.1367 111.535 52.26 111.382 52.42C111.229 52.58 111.105 52.7667 111.012 52.98C110.925 53.1867 110.882 53.41 110.882 53.65ZM116.351 51.3H117.091V56H116.351V51.3ZM116.161 49.98C116.161 49.8267 116.214 49.6967 116.321 49.59C116.434 49.4767 116.567 49.42 116.721 49.42C116.874 49.42 117.007 49.4767 117.121 49.59C117.234 49.6967 117.291 49.8267 117.291 49.98C117.291 50.1333 117.234 50.2667 117.121 50.38C117.007 50.4933 116.874 50.55 116.721 50.55C116.567 50.55 116.434 50.4933 116.321 50.38C116.214 50.2667 116.161 50.1333 116.161 49.98ZM122.68 54.89C122.467 55.25 122.177 55.54 121.81 55.76C121.444 55.98 121.03 56.09 120.57 56.09C120.237 56.09 119.92 56.0267 119.62 55.9C119.327 55.7667 119.07 55.59 118.85 55.37C118.63 55.15 118.454 54.8933 118.32 54.6C118.194 54.3 118.13 53.9833 118.13 53.65C118.13 53.3167 118.194 53.0033 118.32 52.71C118.454 52.41 118.63 52.15 118.85 51.93C119.07 51.71 119.327 51.5367 119.62 51.41C119.92 51.2767 120.237 51.21 120.57 51.21C121.03 51.21 121.444 51.32 121.81 51.54C122.177 51.76 122.467 52.05 122.68 52.41L122.03 52.79C121.884 52.5433 121.684 52.3367 121.43 52.17C121.177 51.9967 120.89 51.91 120.57 51.91C120.337 51.91 120.117 51.9567 119.91 52.05C119.71 52.1367 119.534 52.26 119.38 52.42C119.227 52.5733 119.104 52.7567 119.01 52.97C118.924 53.1767 118.88 53.4033 118.88 53.65C118.88 53.8967 118.924 54.1267 119.01 54.34C119.104 54.5467 119.227 54.73 119.38 54.89C119.534 55.0433 119.71 55.1667 119.91 55.26C120.117 55.3467 120.337 55.39 120.57 55.39C120.89 55.39 121.177 55.3067 121.43 55.14C121.684 54.9667 121.884 54.7567 122.03 54.51L122.68 54.89ZM124.016 51.3L124.186 50H124.746V51.3H126.256V51.96H124.746V54.54C124.746 54.8533 124.796 55.07 124.896 55.19C125.002 55.3033 125.162 55.36 125.376 55.36C125.489 55.36 125.619 55.3467 125.766 55.32C125.912 55.2933 126.076 55.26 126.256 55.22V55.92C126.062 55.98 125.879 56.0233 125.706 56.05C125.539 56.0767 125.386 56.09 125.246 56.09C124.806 56.09 124.489 55.9733 124.296 55.74C124.109 55.5 124.016 55.19 124.016 54.81V51.96H123.066V51.3H124.016ZM127.366 51.3H128.106V56H127.366V51.3ZM127.176 49.98C127.176 49.8267 127.23 49.6967 127.336 49.59C127.45 49.4767 127.583 49.42 127.736 49.42C127.89 49.42 128.023 49.4767 128.136 49.59C128.25 49.6967 128.306 49.8267 128.306 49.98C128.306 50.1333 128.25 50.2667 128.136 50.38C128.023 50.4933 127.89 50.55 127.736 50.55C127.583 50.55 127.45 50.4933 127.336 50.38C127.23 50.2667 127.176 50.1333 127.176 49.98ZM129.146 53.65C129.146 53.3167 129.209 53.0033 129.336 52.71C129.463 52.41 129.636 52.15 129.856 51.93C130.076 51.71 130.333 51.5367 130.626 51.41C130.926 51.2767 131.246 51.21 131.586 51.21C131.926 51.21 132.243 51.2767 132.536 51.41C132.836 51.5367 133.096 51.71 133.316 51.93C133.536 52.15 133.709 52.41 133.836 52.71C133.963 53.0033 134.026 53.3167 134.026 53.65C134.026 53.9833 133.963 54.3 133.836 54.6C133.709 54.8933 133.536 55.15 133.316 55.37C133.096 55.59 132.836 55.7667 132.536 55.9C132.243 56.0267 131.926 56.09 131.586 56.09C131.246 56.09 130.926 56.0267 130.626 55.9C130.333 55.7667 130.076 55.59 129.856 55.37C129.636 55.15 129.463 54.8933 129.336 54.6C129.209 54.3 129.146 53.9833 129.146 53.65ZM129.896 53.65C129.896 53.89 129.939 54.1167 130.026 54.33C130.113 54.5367 130.229 54.72 130.376 54.88C130.529 55.04 130.709 55.1667 130.916 55.26C131.123 55.3467 131.346 55.39 131.586 55.39C131.826 55.39 132.049 55.3467 132.256 55.26C132.463 55.1667 132.639 55.04 132.786 54.88C132.939 54.72 133.059 54.5367 133.146 54.33C133.233 54.1167 133.276 53.89 133.276 53.65C133.276 53.41 133.233 53.1867 133.146 52.98C133.059 52.7667 132.939 52.58 132.786 52.42C132.639 52.26 132.463 52.1367 132.256 52.05C132.049 51.9567 131.826 51.91 131.586 51.91C131.346 51.91 131.123 51.9567 130.916 52.05C130.709 52.1367 130.529 52.26 130.376 52.42C130.229 52.58 130.113 52.7667 130.026 52.98C129.939 53.1867 129.896 53.41 129.896 53.65ZM135.752 56H135.022V51.3H135.672L135.702 52.21C135.889 51.9167 136.122 51.6767 136.402 51.49C136.682 51.3033 136.999 51.21 137.352 51.21C137.719 51.21 138.026 51.27 138.272 51.39C138.526 51.5033 138.729 51.66 138.882 51.86C139.036 52.06 139.146 52.2933 139.212 52.56C139.279 52.8267 139.312 53.11 139.312 53.41V56H138.582V53.56C138.582 53.3333 138.566 53.12 138.532 52.92C138.499 52.72 138.436 52.5467 138.342 52.4C138.249 52.2467 138.122 52.1267 137.962 52.04C137.809 51.9533 137.606 51.91 137.352 51.91C137.126 51.91 136.912 51.96 136.712 52.06C136.519 52.1533 136.349 52.28 136.202 52.44C136.062 52.6 135.952 52.7867 135.872 53C135.792 53.2067 135.752 53.4233 135.752 53.65V56ZM147.539 56.15C147.539 56.5233 147.479 56.8567 147.359 57.15C147.239 57.4433 147.072 57.69 146.859 57.89C146.652 58.09 146.402 58.24 146.109 58.34C145.815 58.4467 145.492 58.5 145.139 58.5C144.859 58.5 144.599 58.4667 144.359 58.4C144.125 58.3333 143.915 58.25 143.729 58.15C143.542 58.0567 143.385 57.96 143.259 57.86C143.132 57.76 143.039 57.6733 142.979 57.6L143.449 57.02C143.495 57.0733 143.569 57.14 143.669 57.22C143.775 57.3067 143.899 57.39 144.039 57.47C144.185 57.55 144.345 57.6167 144.519 57.67C144.699 57.73 144.889 57.76 145.089 57.76C145.329 57.76 145.552 57.7267 145.759 57.66C145.972 57.5933 146.155 57.4933 146.309 57.36C146.462 57.2267 146.582 57.06 146.669 56.86C146.762 56.66 146.809 56.4233 146.809 56.15V55.24C146.615 55.4733 146.379 55.66 146.099 55.8C145.819 55.9333 145.505 56 145.159 56C144.832 56 144.522 55.9367 144.229 55.81C143.935 55.6833 143.682 55.5133 143.469 55.3C143.255 55.08 143.085 54.8267 142.959 54.54C142.832 54.2467 142.769 53.9333 142.769 53.6C142.769 53.2667 142.832 52.9567 142.959 52.67C143.085 52.3767 143.255 52.1233 143.469 51.91C143.682 51.6967 143.935 51.5267 144.229 51.4C144.522 51.2733 144.832 51.21 145.159 51.21C145.519 51.21 145.842 51.2833 146.129 51.43C146.422 51.57 146.665 51.7667 146.859 52.02L146.879 51.3H147.539V56.15ZM143.519 53.6C143.519 53.8267 143.562 54.04 143.649 54.24C143.735 54.44 143.852 54.6167 143.999 54.77C144.145 54.9167 144.319 55.0333 144.519 55.12C144.719 55.2067 144.932 55.25 145.159 55.25C145.385 55.25 145.599 55.2067 145.799 55.12C145.999 55.0333 146.172 54.9167 146.319 54.77C146.472 54.6167 146.592 54.44 146.679 54.24C146.765 54.04 146.809 53.8267 146.809 53.6C146.809 53.3733 146.765 53.16 146.679 52.96C146.592 52.76 146.472 52.5867 146.319 52.44C146.172 52.2933 145.999 52.1767 145.799 52.09C145.599 52.0033 145.385 51.96 145.159 51.96C144.932 51.96 144.719 52.0033 144.519 52.09C144.319 52.1767 144.145 52.2933 143.999 52.44C143.852 52.5867 143.735 52.76 143.649 52.96C143.562 53.16 143.519 53.3733 143.519 53.6ZM148.809 52.08C148.909 51.9733 149.029 51.87 149.169 51.77C149.309 51.6633 149.463 51.57 149.629 51.49C149.796 51.4033 149.979 51.3367 150.179 51.29C150.379 51.2367 150.589 51.21 150.809 51.21C151.383 51.21 151.836 51.3767 152.169 51.71C152.509 52.0367 152.679 52.4767 152.679 53.03V56H152.029L151.989 55.26C151.796 55.52 151.556 55.7233 151.269 55.87C150.989 56.0167 150.666 56.09 150.299 56.09C150.073 56.09 149.859 56.0533 149.659 55.98C149.466 55.9067 149.296 55.8067 149.149 55.68C149.009 55.5467 148.899 55.3933 148.819 55.22C148.739 55.0467 148.699 54.8567 148.699 54.65C148.699 54.2233 148.866 53.8867 149.199 53.64C149.533 53.3867 149.989 53.26 150.569 53.26H151.949V53.14C151.949 52.7333 151.849 52.4267 151.649 52.22C151.456 52.0133 151.183 51.91 150.829 51.91C150.496 51.91 150.199 51.9833 149.939 52.13C149.679 52.2767 149.466 52.4367 149.299 52.61L148.809 52.08ZM151.949 53.92L150.679 53.91C150.293 53.9033 149.999 53.97 149.799 54.11C149.599 54.2433 149.499 54.4167 149.499 54.63C149.499 54.8233 149.576 55 149.729 55.16C149.889 55.3133 150.129 55.39 150.449 55.39C150.656 55.39 150.849 55.3567 151.029 55.29C151.216 55.2167 151.376 55.12 151.509 55C151.643 54.8733 151.749 54.7267 151.829 54.56C151.909 54.3933 151.949 54.21 151.949 54.01V53.92ZM154.717 56H153.987V51.3H154.637L154.667 52.15C154.84 51.87 155.06 51.6433 155.327 51.47C155.6 51.2967 155.917 51.21 156.277 51.21C156.75 51.21 157.124 51.31 157.397 51.51C157.67 51.7033 157.87 51.96 157.997 52.28C158.184 51.9667 158.424 51.71 158.717 51.51C159.01 51.31 159.354 51.21 159.747 51.21C160.1 51.21 160.397 51.27 160.637 51.39C160.884 51.5033 161.08 51.66 161.227 51.86C161.38 52.06 161.487 52.2933 161.547 52.56C161.614 52.8267 161.647 53.11 161.647 53.41V56H160.917V53.56C160.917 53.3333 160.9 53.12 160.867 52.92C160.84 52.72 160.784 52.5467 160.697 52.4C160.617 52.2467 160.5 52.1267 160.347 52.04C160.194 51.9533 159.99 51.91 159.737 51.91C159.51 51.91 159.3 51.96 159.107 52.06C158.92 52.1533 158.757 52.28 158.617 52.44C158.477 52.6 158.367 52.7867 158.287 53C158.214 53.2067 158.177 53.4233 158.177 53.65V56H157.447V53.56C157.447 53.3333 157.434 53.12 157.407 52.92C157.38 52.72 157.324 52.5467 157.237 52.4C157.15 52.2467 157.03 52.1267 156.877 52.04C156.724 51.9533 156.52 51.91 156.267 51.91C156.04 51.91 155.83 51.96 155.637 52.06C155.45 52.1533 155.287 52.28 155.147 52.44C155.014 52.6 154.907 52.7867 154.827 53C154.754 53.2067 154.717 53.4233 154.717 53.65V56ZM166.862 55.52C166.762 55.5867 166.652 55.6533 166.532 55.72C166.419 55.7867 166.289 55.8467 166.142 55.9C166.002 55.9533 165.842 55.9967 165.662 56.03C165.489 56.07 165.292 56.09 165.072 56.09C164.686 56.09 164.339 56.0267 164.032 55.9C163.732 55.7667 163.479 55.59 163.272 55.37C163.066 55.15 162.906 54.8933 162.792 54.6C162.686 54.3 162.632 53.9833 162.632 53.65C162.632 53.3167 162.692 53.0033 162.812 52.71C162.932 52.41 163.099 52.15 163.312 51.93C163.526 51.71 163.782 51.5367 164.082 51.41C164.382 51.2767 164.712 51.21 165.072 51.21C165.452 51.21 165.786 51.2767 166.072 51.41C166.366 51.5367 166.606 51.71 166.792 51.93C166.986 52.15 167.129 52.41 167.222 52.71C167.322 53.0033 167.372 53.3167 167.372 53.65C167.372 53.7567 167.362 53.87 167.342 53.99H163.452C163.526 54.41 163.709 54.75 164.002 55.01C164.302 55.2633 164.659 55.39 165.072 55.39C165.419 55.39 165.702 55.3433 165.922 55.25C166.142 55.15 166.329 55.04 166.482 54.92L166.862 55.52ZM166.582 53.32C166.582 52.8667 166.442 52.52 166.162 52.28C165.889 52.0333 165.526 51.91 165.072 51.91C164.619 51.91 164.249 52.0433 163.962 52.31C163.682 52.57 163.509 52.9067 163.442 53.32H166.582ZM170.62 53.65C170.62 53.3167 170.684 53.0033 170.81 52.71C170.937 52.41 171.11 52.15 171.33 51.93C171.55 51.71 171.807 51.5367 172.1 51.41C172.4 51.2767 172.72 51.21 173.06 51.21C173.4 51.21 173.717 51.2767 174.01 51.41C174.31 51.5367 174.57 51.71 174.79 51.93C175.01 52.15 175.184 52.41 175.31 52.71C175.437 53.0033 175.5 53.3167 175.5 53.65C175.5 53.9833 175.437 54.3 175.31 54.6C175.184 54.8933 175.01 55.15 174.79 55.37C174.57 55.59 174.31 55.7667 174.01 55.9C173.717 56.0267 173.4 56.09 173.06 56.09C172.72 56.09 172.4 56.0267 172.1 55.9C171.807 55.7667 171.55 55.59 171.33 55.37C171.11 55.15 170.937 54.8933 170.81 54.6C170.684 54.3 170.62 53.9833 170.62 53.65ZM171.37 53.65C171.37 53.89 171.414 54.1167 171.5 54.33C171.587 54.5367 171.704 54.72 171.85 54.88C172.004 55.04 172.184 55.1667 172.39 55.26C172.597 55.3467 172.82 55.39 173.06 55.39C173.3 55.39 173.524 55.3467 173.73 55.26C173.937 55.1667 174.114 55.04 174.26 54.88C174.414 54.72 174.534 54.5367 174.62 54.33C174.707 54.1167 174.75 53.89 174.75 53.65C174.75 53.41 174.707 53.1867 174.62 52.98C174.534 52.7667 174.414 52.58 174.26 52.42C174.114 52.26 173.937 52.1367 173.73 52.05C173.524 51.9567 173.3 51.91 173.06 51.91C172.82 51.91 172.597 51.9567 172.39 52.05C172.184 52.1367 172.004 52.26 171.85 52.42C171.704 52.58 171.587 52.7667 171.5 52.98C171.414 53.1867 171.37 53.41 171.37 53.65ZM177.227 56H176.497V51.3H177.147L177.177 52.21C177.364 51.9167 177.597 51.6767 177.877 51.49C178.157 51.3033 178.474 51.21 178.827 51.21C179.194 51.21 179.5 51.27 179.747 51.39C180 51.5033 180.204 51.66 180.357 51.86C180.51 52.06 180.62 52.2933 180.687 52.56C180.754 52.8267 180.787 53.11 180.787 53.41V56H180.057V53.56C180.057 53.3333 180.04 53.12 180.007 52.92C179.974 52.72 179.91 52.5467 179.817 52.4C179.724 52.2467 179.597 52.1267 179.437 52.04C179.284 51.9533 179.08 51.91 178.827 51.91C178.6 51.91 178.387 51.96 178.187 52.06C177.994 52.1533 177.824 52.28 177.677 52.44C177.537 52.6 177.427 52.7867 177.347 53C177.267 53.2067 177.227 53.4233 177.227 53.65V56ZM184.613 49.42H185.363V52.26H189.073V49.42H189.823V56H189.073V52.97H185.363V56H184.613V49.42ZM195.095 55.52C194.995 55.5867 194.885 55.6533 194.765 55.72C194.651 55.7867 194.521 55.8467 194.375 55.9C194.235 55.9533 194.075 55.9967 193.895 56.03C193.721 56.07 193.525 56.09 193.305 56.09C192.918 56.09 192.571 56.0267 192.265 55.9C191.965 55.7667 191.711 55.59 191.505 55.37C191.298 55.15 191.138 54.8933 191.025 54.6C190.918 54.3 190.865 53.9833 190.865 53.65C190.865 53.3167 190.925 53.0033 191.045 52.71C191.165 52.41 191.331 52.15 191.545 51.93C191.758 51.71 192.015 51.5367 192.315 51.41C192.615 51.2767 192.945 51.21 193.305 51.21C193.685 51.21 194.018 51.2767 194.305 51.41C194.598 51.5367 194.838 51.71 195.025 51.93C195.218 52.15 195.361 52.41 195.455 52.71C195.555 53.0033 195.605 53.3167 195.605 53.65C195.605 53.7567 195.595 53.87 195.575 53.99H191.685C191.758 54.41 191.941 54.75 192.235 55.01C192.535 55.2633 192.891 55.39 193.305 55.39C193.651 55.39 193.935 55.3433 194.155 55.25C194.375 55.15 194.561 55.04 194.715 54.92L195.095 55.52ZM194.815 53.32C194.815 52.8667 194.675 52.52 194.395 52.28C194.121 52.0333 193.758 51.91 193.305 51.91C192.851 51.91 192.481 52.0433 192.195 52.31C191.915 52.57 191.741 52.9067 191.675 53.32H194.815ZM200.355 55.27C200.162 55.5233 199.919 55.7233 199.625 55.87C199.339 56.0167 199.012 56.09 198.645 56.09C198.305 56.09 197.989 56.0267 197.695 55.9C197.409 55.7667 197.155 55.59 196.935 55.37C196.722 55.15 196.552 54.8933 196.425 54.6C196.305 54.3 196.245 53.9833 196.245 53.65C196.245 53.3167 196.305 53.0033 196.425 52.71C196.552 52.41 196.722 52.15 196.935 51.93C197.155 51.71 197.409 51.5367 197.695 51.41C197.989 51.2767 198.305 51.21 198.645 51.21C198.999 51.21 199.315 51.28 199.595 51.42C199.875 51.5533 200.112 51.7367 200.305 51.97L200.315 48.8H201.045V56H200.395L200.355 55.27ZM196.995 53.65C196.995 53.89 197.039 54.1167 197.125 54.33C197.219 54.5367 197.342 54.72 197.495 54.88C197.649 55.04 197.825 55.1667 198.025 55.26C198.232 55.3467 198.452 55.39 198.685 55.39C198.952 55.39 199.189 55.3467 199.395 55.26C199.609 55.1667 199.789 55.0433 199.935 54.89C200.082 54.73 200.192 54.5433 200.265 54.33C200.345 54.1167 200.385 53.89 200.385 53.65C200.385 53.4033 200.345 53.1767 200.265 52.97C200.185 52.7567 200.069 52.5733 199.915 52.42C199.769 52.26 199.592 52.1367 199.385 52.05C199.179 51.9567 198.945 51.91 198.685 51.91C198.452 51.91 198.232 51.9567 198.025 52.05C197.825 52.1367 197.649 52.26 197.495 52.42C197.342 52.58 197.219 52.7667 197.125 52.98C197.039 53.1867 196.995 53.41 196.995 53.65ZM206.276 55.52C206.176 55.5867 206.066 55.6533 205.946 55.72C205.833 55.7867 205.703 55.8467 205.556 55.9C205.416 55.9533 205.256 55.9967 205.076 56.03C204.903 56.07 204.706 56.09 204.486 56.09C204.1 56.09 203.753 56.0267 203.446 55.9C203.146 55.7667 202.893 55.59 202.686 55.37C202.48 55.15 202.32 54.8933 202.206 54.6C202.1 54.3 202.046 53.9833 202.046 53.65C202.046 53.3167 202.106 53.0033 202.226 52.71C202.346 52.41 202.513 52.15 202.726 51.93C202.94 51.71 203.196 51.5367 203.496 51.41C203.796 51.2767 204.126 51.21 204.486 51.21C204.866 51.21 205.2 51.2767 205.486 51.41C205.78 51.5367 206.02 51.71 206.206 51.93C206.4 52.15 206.543 52.41 206.636 52.71C206.736 53.0033 206.786 53.3167 206.786 53.65C206.786 53.7567 206.776 53.87 206.756 53.99H202.866C202.94 54.41 203.123 54.75 203.416 55.01C203.716 55.2633 204.073 55.39 204.486 55.39C204.833 55.39 205.116 55.3433 205.336 55.25C205.556 55.15 205.743 55.04 205.896 54.92L206.276 55.52ZM205.996 53.32C205.996 52.8667 205.856 52.52 205.576 52.28C205.303 52.0333 204.94 51.91 204.486 51.91C204.033 51.91 203.663 52.0433 203.376 52.31C203.096 52.57 202.923 52.9067 202.856 53.32H205.996ZM208.575 56H207.845V51.3H208.485L208.515 52.15C208.668 51.8767 208.858 51.6533 209.085 51.48C209.318 51.3 209.585 51.21 209.885 51.21C210.051 51.21 210.218 51.24 210.385 51.3V52.05C210.225 52.01 210.078 51.99 209.945 51.99C209.731 51.99 209.538 52.0367 209.365 52.13C209.198 52.2167 209.055 52.3367 208.935 52.49C208.821 52.6367 208.731 52.81 208.665 53.01C208.605 53.21 208.575 53.4233 208.575 53.65V56ZM211.104 52.08C211.204 51.9733 211.324 51.87 211.464 51.77C211.604 51.6633 211.757 51.57 211.924 51.49C212.091 51.4033 212.274 51.3367 212.474 51.29C212.674 51.2367 212.884 51.21 213.104 51.21C213.677 51.21 214.131 51.3767 214.464 51.71C214.804 52.0367 214.974 52.4767 214.974 53.03V56H214.324L214.284 55.26C214.091 55.52 213.851 55.7233 213.564 55.87C213.284 56.0167 212.961 56.09 212.594 56.09C212.367 56.09 212.154 56.0533 211.954 55.98C211.761 55.9067 211.591 55.8067 211.444 55.68C211.304 55.5467 211.194 55.3933 211.114 55.22C211.034 55.0467 210.994 54.8567 210.994 54.65C210.994 54.2233 211.161 53.8867 211.494 53.64C211.827 53.3867 212.284 53.26 212.864 53.26H214.244V53.14C214.244 52.7333 214.144 52.4267 213.944 52.22C213.751 52.0133 213.477 51.91 213.124 51.91C212.791 51.91 212.494 51.9833 212.234 52.13C211.974 52.2767 211.761 52.4367 211.594 52.61L211.104 52.08ZM214.244 53.92L212.974 53.91C212.587 53.9033 212.294 53.97 212.094 54.11C211.894 54.2433 211.794 54.4167 211.794 54.63C211.794 54.8233 211.871 55 212.024 55.16C212.184 55.3133 212.424 55.39 212.744 55.39C212.951 55.39 213.144 55.3567 213.324 55.29C213.511 55.2167 213.671 55.12 213.804 55C213.937 54.8733 214.044 54.7267 214.124 54.56C214.204 54.3933 214.244 54.21 214.244 54.01V53.92Z" fill="#1D2439"/>
<defs>
<linearGradient id="paint0_linear_76_850" x1="17.4396" y1="56.3109" x2="17.4396" y2="0" gradientUnits="userSpaceOnUse">
<stop stop-color="#8A00FF"/>
<stop offset="1" stop-color="#00C6FF"/>
</linearGradient>
<clipPath id="clip0_76_850">
<rect width="138" height="56.3109" fill="white"/>
</clipPath>
</defs>
</svg>
