<svg width="138" height="57" viewBox="0 0 138 57" fill="none" xmlns="http://www.w3.org/2000/svg">
<g clip-path="url(#clip0_35_5774)">
<path d="M51.9439 42.3245H43.6033V23.6516H51.4049C52.6565 23.6516 53.7071 23.7704 54.5567 24.017C55.4063 24.2637 56.1006 24.6017 56.6304 25.0219C57.1603 25.4513 57.544 25.9629 57.7815 26.5567C58.019 27.1505 58.1378 27.7991 58.1378 28.5025C58.1378 29.3156 57.9368 30.0738 57.544 30.7773C57.1511 31.4807 56.4934 32.0471 55.589 32.4764C56.7583 32.8693 57.617 33.4722 58.1469 34.267C58.6768 35.0618 58.9417 35.9388 58.9417 36.9071C58.9417 37.6471 58.8138 38.3414 58.5763 38.99C58.3296 39.6386 57.9276 40.2142 57.3704 40.7075C56.8131 41.2008 56.0914 41.5936 55.1961 41.886C54.31 42.1783 53.232 42.3245 51.9622 42.3245H51.9439ZM47.3397 31.1153H51.341C52.2454 31.1153 52.9214 30.9143 53.3691 30.5215C53.8167 30.1286 54.0359 29.6171 54.0359 28.9867C54.0359 28.7035 53.9811 28.4386 53.8624 28.1919C53.7527 27.9453 53.5792 27.7443 53.3691 27.5799C53.1589 27.4154 52.8757 27.2875 52.5469 27.1962C52.218 27.1048 51.8343 27.05 51.3958 27.05H47.3397V31.1061V31.1153ZM51.9439 38.9169C52.4372 38.9169 52.8575 38.8621 53.2229 38.7434C53.5883 38.6246 53.8806 38.4784 54.1273 38.2775C54.374 38.0765 54.5658 37.8298 54.6937 37.5375C54.8216 37.2452 54.8947 36.9345 54.8947 36.6148C54.8947 36.2768 54.8307 35.9662 54.6937 35.683C54.5567 35.3998 54.374 35.1531 54.1273 34.943C53.8806 34.7329 53.5792 34.5776 53.2229 34.4588C52.8666 34.3401 52.4372 34.2853 51.9439 34.2853H47.3488V38.9078H51.9439V38.9169Z" fill="#0D0F2B"/>
<path d="M72.3801 40.8446C72.1335 41.0364 71.8229 41.2374 71.4574 41.4384C71.092 41.6485 70.6627 41.8404 70.1785 42.0231C69.6943 42.2058 69.1644 42.3519 68.5889 42.4616C68.0134 42.5712 67.4104 42.6351 66.7892 42.6351C65.693 42.6351 64.6972 42.4524 63.8111 42.0779C62.9249 41.7125 62.1667 41.2009 61.5363 40.5614C60.9151 39.9219 60.4218 39.1637 60.0747 38.3049C59.7275 37.4462 59.554 36.5144 59.554 35.5095C59.554 34.5046 59.7367 33.6002 60.0929 32.7323C60.4492 31.8645 60.9517 31.1062 61.582 30.4759C62.2124 29.8455 62.9797 29.3431 63.8659 28.9685C64.752 28.6031 65.7295 28.4113 66.7892 28.4113C67.9037 28.4113 68.9086 28.594 69.7856 28.9685C70.6627 29.3339 71.4118 29.8364 72.0147 30.4759C72.6176 31.1062 73.0835 31.8553 73.3941 32.714C73.7048 33.5728 73.8601 34.5046 73.8601 35.5095C73.8601 35.7196 73.8509 35.9297 73.8327 36.149C73.8144 36.3682 73.787 36.5783 73.7504 36.7885L63.3908 36.7611C63.5005 37.2178 63.6832 37.6106 63.9116 37.9395C64.1399 38.2684 64.4231 38.5516 64.752 38.7891C65.0718 39.0266 65.4372 39.2093 65.83 39.3281C66.2228 39.4469 66.6431 39.5108 67.0816 39.5108C67.5749 39.5108 68.0134 39.4651 68.3971 39.3647C68.7899 39.2733 69.1188 39.1637 69.3928 39.0358C69.6669 38.917 69.9044 38.7891 70.1054 38.6521C70.3064 38.5242 70.4617 38.3963 70.5713 38.2867L72.3892 40.8446H72.3801ZM69.9135 33.2256C69.7582 32.8602 69.5481 32.5405 69.2649 32.2847C68.9817 32.0289 68.6437 31.8279 68.2418 31.6909C67.8489 31.5538 67.4013 31.4808 66.908 31.4808C66.4147 31.4808 66.0036 31.5447 65.6016 31.6817C65.2088 31.8188 64.8525 32.0106 64.5419 32.2664C64.2313 32.5222 63.9664 32.8328 63.7654 33.2074C63.5553 33.5728 63.4091 33.9839 63.3086 34.4406H70.1785C70.1602 34.0021 70.078 33.6002 69.9227 33.2348L69.9135 33.2256Z" fill="#0D0F2B"/>
<path d="M76.354 28.6396L77.1488 24.9489H80.0173V28.6396H83.909V31.5903H80.0173V37.1538C80.0173 37.7567 80.0904 38.2318 80.2274 38.5698C80.3736 38.9078 80.602 39.1453 80.9217 39.2824C81.2414 39.4194 81.6525 39.4559 82.1458 39.4103C82.6392 39.3646 83.2238 39.255 83.909 39.0814V42.0869C82.7579 42.4067 81.7165 42.5711 80.7847 42.5803C79.8528 42.5894 79.0672 42.4524 78.4186 42.1692C77.77 41.886 77.2584 41.4383 76.9021 40.8354C76.5458 40.2325 76.3631 39.4833 76.3631 38.5972V31.5903H74.0884V28.6396H76.3631H76.354Z" fill="#0D0F2B"/>
<path d="M97.3015 40.8446C97.0548 41.0364 96.7442 41.2374 96.3788 41.4384C96.0134 41.6485 95.584 41.8404 95.0999 42.0231C94.6157 42.2058 94.0858 42.3519 93.5103 42.4616C92.9348 42.5712 92.3318 42.6351 91.7106 42.6351C90.6144 42.6351 89.6186 42.4524 88.7325 42.0779C87.8463 41.7125 87.0881 41.2009 86.4577 40.5614C85.8365 39.9219 85.3432 39.1637 84.9961 38.3049C84.6489 37.4462 84.4753 36.5144 84.4753 35.5095C84.4753 34.5046 84.658 33.6002 85.0143 32.7323C85.3706 31.8645 85.8731 31.1062 86.5034 30.4759C87.1338 29.8455 87.9011 29.3431 88.7873 28.9685C89.6734 28.6031 90.6509 28.4113 91.7106 28.4113C92.8251 28.4113 93.83 28.594 94.707 28.9685C95.584 29.3339 96.3331 29.8364 96.9361 30.4759C97.539 31.1062 98.0049 31.8553 98.3155 32.714C98.6261 33.5728 98.7814 34.5046 98.7814 35.5095C98.7814 35.7196 98.7723 35.9297 98.754 36.149C98.7358 36.3682 98.7084 36.5783 98.6718 36.7885L88.3122 36.7611C88.4219 37.2178 88.6046 37.6106 88.8329 37.9395C89.0613 38.2684 89.3445 38.5516 89.6734 38.7891C89.9932 39.0266 90.3586 39.2093 90.7514 39.3281C91.1442 39.4469 91.5644 39.5108 92.0029 39.5108C92.4963 39.5108 92.9348 39.4651 93.3185 39.3647C93.7113 39.2733 94.0401 39.1637 94.3142 39.0358C94.5883 38.917 94.8258 38.7891 95.0268 38.6521C95.2278 38.5242 95.3831 38.3963 95.4927 38.2867L97.3106 40.8446H97.3015ZM94.8258 33.2256C94.6705 32.8602 94.4604 32.5405 94.1772 32.2847C93.894 32.0289 93.556 31.8279 93.154 31.6909C92.7612 31.5538 92.3136 31.4808 91.8202 31.4808C91.3269 31.4808 90.9158 31.5447 90.5139 31.6817C90.121 31.8188 89.7648 32.0106 89.4542 32.2664C89.1436 32.5222 88.8786 32.8328 88.6776 33.2074C88.4675 33.5728 88.3214 33.9839 88.2209 34.4406H95.0907C95.0725 34.0021 94.9902 33.6002 94.8349 33.2348L94.8258 33.2256Z" fill="#0D0F2B"/>
<path d="M111.178 40.7076C110.593 41.2922 109.908 41.7581 109.123 42.0962C108.337 42.4342 107.469 42.6077 106.528 42.6077C105.587 42.6077 104.619 42.4159 103.76 42.0413C102.901 41.6668 102.152 41.1552 101.522 40.5066C100.892 39.8671 100.389 39.1089 100.015 38.2501C99.6492 37.3914 99.4574 36.4687 99.4574 35.4821C99.4574 34.4955 99.6401 33.5728 100.015 32.7141C100.38 31.8553 100.883 31.0971 101.522 30.4576C102.152 29.8181 102.901 29.3065 103.76 28.9228C104.619 28.5392 105.542 28.3564 106.528 28.3564C107.378 28.3564 108.163 28.5026 108.885 28.7858C109.607 29.069 110.237 29.4618 110.785 29.946L110.813 21.8885H114.421V42.3245H111.297L111.187 40.7076H111.178ZM103.413 37.0168C103.632 37.4919 103.915 37.903 104.263 38.2684C104.61 38.6247 105.021 38.9079 105.487 39.118C105.953 39.3281 106.455 39.4286 107.003 39.4286C107.551 39.4286 108.09 39.3281 108.565 39.118C109.04 38.9079 109.452 38.6247 109.799 38.2684C110.146 37.9121 110.42 37.4919 110.612 37.0168C110.804 36.5418 110.895 36.0302 110.895 35.4821C110.895 34.934 110.794 34.4224 110.593 33.9473C110.393 33.4723 110.118 33.0612 109.771 32.6958C109.424 32.3395 109.013 32.0563 108.547 31.8462C108.081 31.6361 107.57 31.5356 107.003 31.5356C106.437 31.5356 105.944 31.6361 105.487 31.8462C105.021 32.0563 104.619 32.3395 104.263 32.6958C103.915 33.0521 103.632 33.4723 103.413 33.9473C103.194 34.4224 103.084 34.934 103.084 35.4821C103.084 36.0302 103.194 36.5418 103.413 37.0168Z" fill="#0D0F2B"/>
<path d="M120.405 42.3245H116.769V28.6396H119.893L120.04 30.7407C120.323 30.3022 120.642 29.9094 120.99 29.5623C121.337 29.2151 121.73 28.9319 122.168 28.7218C122.607 28.5117 123.072 28.3929 123.584 28.3564C124.096 28.3198 124.644 28.3929 125.228 28.5848L125.201 32.0745C124.58 31.8644 123.977 31.773 123.401 31.8096C122.826 31.837 122.314 31.9923 121.867 32.2664C121.419 32.5404 121.063 32.9332 120.798 33.4448C120.533 33.9564 120.405 34.5776 120.405 35.3176V42.3245Z" fill="#0D0F2B"/>
<path d="M127.841 33.0978L125.822 30.7134C126.014 30.5216 126.288 30.2932 126.663 30.0191C127.028 29.7451 127.476 29.4801 127.987 29.2426C128.499 28.9959 129.083 28.7858 129.732 28.6214C130.381 28.4478 131.102 28.3656 131.879 28.3656C132.71 28.3656 133.505 28.4752 134.245 28.6945C134.994 28.9137 135.643 29.2517 136.2 29.6994C136.757 30.1561 137.196 30.7225 137.516 31.4168C137.835 32.1111 138 32.9333 138 33.9017V42.3337H134.875L134.62 40.5157C134.373 40.8355 134.108 41.1278 133.807 41.3927C133.514 41.6577 133.185 41.8769 132.811 42.0596C132.436 42.2423 132.043 42.3794 131.623 42.4707C131.194 42.5621 130.737 42.6169 130.244 42.6169C129.522 42.6169 128.883 42.5073 128.316 42.288C127.75 42.0688 127.266 41.7764 126.873 41.3927C126.48 41.0182 126.169 40.5706 125.968 40.0772C125.767 39.5839 125.658 39.0358 125.658 38.442C125.658 37.8482 125.776 37.2727 126.023 36.7519C126.27 36.2312 126.653 35.7836 127.174 35.3999C127.695 35.0253 128.353 34.7147 129.147 34.4955C129.942 34.2671 130.892 34.1575 131.989 34.1575H134.546V33.9565C134.546 33.1617 134.309 32.5496 133.834 32.1111C133.359 31.6726 132.655 31.4625 131.705 31.4625C131.267 31.4625 130.847 31.5173 130.445 31.6361C130.034 31.7457 129.668 31.8919 129.339 32.0655C129.01 32.239 128.709 32.4126 128.444 32.6044C128.179 32.7963 127.978 32.9607 127.85 33.116L127.841 33.0978ZM134.537 36.3865L132.208 36.3591C131.185 36.3591 130.454 36.5418 130.024 36.9164C129.586 37.2818 129.376 37.7203 129.376 38.2045C129.376 38.4146 129.422 38.6156 129.504 38.8165C129.586 39.0175 129.714 39.1911 129.869 39.3373C130.034 39.4926 130.235 39.6205 130.49 39.721C130.746 39.8214 131.048 39.8763 131.386 39.8763C131.742 39.8763 132.116 39.8032 132.491 39.6479C132.866 39.4926 133.204 39.2825 133.496 39.0084C133.788 38.7343 134.035 38.3963 134.236 38.0035C134.437 37.6107 134.537 37.1539 134.537 36.6423V36.3865Z" fill="#0D0F2B"/>
<path d="M34.6051 46.7643C32.7414 53.7164 21.7972 57.1605 7.79253 56.1282C10.3139 51.5513 11.4833 44.5536 11.0813 36.4047C18.0699 36.423 24.0171 35.2354 28.0458 32.9698C33.1982 37.5375 35.7653 42.4433 34.6051 46.7643ZM0.7217 0.182709C0.475043 0.118761 0.237522 0.0548127 0 0C3.39838 5.43559 6.35827 12.2872 8.42288 19.9701C8.63299 20.7466 8.82484 21.514 9.00755 22.2905C16.864 25.1407 23.469 28.9228 28.0458 32.9698C30.8047 31.4259 32.6592 29.3704 33.3352 26.8673C35.8018 17.6223 21.2034 5.67311 0.7217 0.182709Z" fill="url(#paint0_linear_35_5774)"/>
</g>
<defs>
<linearGradient id="paint0_linear_35_5774" x1="17.4396" y1="56.3109" x2="17.4396" y2="0" gradientUnits="userSpaceOnUse">
<stop stop-color="#8A00FF"/>
<stop offset="1" stop-color="#00C6FF"/>
</linearGradient>
<clipPath id="clip0_35_5774">
<rect width="138" height="56.3109" fill="white"/>
</clipPath>
</defs>
</svg>
