<svg width="113" height="47" viewBox="0 0 113 47" fill="none" xmlns="http://www.w3.org/2000/svg">
<g clip-path="url(#clip0_18_205)">
<path d="M42.5338 35.5476H35.7041V20.2575H42.0924C43.1172 20.2575 43.9775 20.3547 44.6732 20.5567C45.3689 20.7587 45.9374 21.0354 46.3713 21.3795C46.8051 21.7311 47.1193 22.15 47.3138 22.6363C47.5083 23.1225 47.6055 23.6536 47.6055 24.2296C47.6055 24.8954 47.441 25.5162 47.1193 26.0922C46.7976 26.6682 46.259 27.132 45.5185 27.4836C46.476 27.8053 47.1791 28.299 47.613 28.9498C48.0469 29.6006 48.2638 30.3187 48.2638 31.1116C48.2638 31.7176 48.1591 32.2861 47.9646 32.8172C47.7626 33.3483 47.4335 33.8196 46.9772 34.2235C46.5209 34.6275 45.9299 34.9491 45.1968 35.1885C44.4712 35.4279 43.5885 35.5476 42.5487 35.5476H42.5338ZM38.7636 26.369H42.0401C42.7806 26.369 43.3342 26.2044 43.7007 25.8828C44.0673 25.5611 44.2468 25.1422 44.2468 24.6261C44.2468 24.3942 44.2019 24.1772 44.1047 23.9753C44.0149 23.7733 43.8728 23.6087 43.7007 23.4741C43.5287 23.3394 43.2968 23.2347 43.0275 23.1599C42.7582 23.0851 42.444 23.0402 42.0849 23.0402H38.7636V26.3615V26.369ZM42.5338 32.7573C42.9377 32.7573 43.2818 32.7125 43.581 32.6152C43.8803 32.518 44.1196 32.3983 44.3216 32.2337C44.5236 32.0691 44.6807 31.8672 44.7854 31.6278C44.8901 31.3884 44.95 31.1341 44.95 30.8723C44.95 30.5955 44.8976 30.3411 44.7854 30.1093C44.6732 29.8774 44.5236 29.6754 44.3216 29.5033C44.1196 29.3313 43.8728 29.2041 43.581 29.1069C43.2893 29.0096 42.9377 28.9647 42.5338 28.9647H38.7711V32.7499H42.5338V32.7573Z" fill="#FCFCFD"/>
<path d="M59.2677 34.3357C59.0657 34.4928 58.8114 34.6574 58.5122 34.822C58.213 34.994 57.8614 35.1511 57.4649 35.3007C57.0685 35.4503 56.6346 35.57 56.1633 35.6598C55.6921 35.7495 55.1983 35.8019 54.6897 35.8019C53.792 35.8019 52.9766 35.6523 52.251 35.3456C51.5254 35.0464 50.9046 34.6275 50.3884 34.1038C49.8797 33.5802 49.4758 32.9593 49.1915 32.2562C48.9073 31.553 48.7651 30.79 48.7651 29.9671C48.7651 29.1443 48.9147 28.4037 49.2065 27.6931C49.4982 26.9824 49.9096 26.3615 50.4258 25.8454C50.942 25.3292 51.5703 24.9178 52.2959 24.6111C53.0215 24.3119 53.8219 24.1548 54.6897 24.1548C55.6023 24.1548 56.4251 24.3044 57.1433 24.6111C57.8614 24.9103 58.4748 25.3218 58.9685 25.8454C59.4622 26.3615 59.8437 26.9749 60.098 27.6781C60.3524 28.3813 60.4796 29.1443 60.4796 29.9671C60.4796 30.1392 60.4721 30.3112 60.4571 30.4908C60.4422 30.6703 60.4197 30.8423 60.3898 31.0144L51.9069 30.992C51.9967 31.366 52.1463 31.6876 52.3333 31.9569C52.5203 32.2262 52.7522 32.4581 53.0215 32.6526C53.2833 32.8471 53.5826 32.9967 53.9042 33.094C54.2259 33.1912 54.57 33.2436 54.929 33.2436C55.333 33.2436 55.6921 33.2062 56.0062 33.1239C56.3279 33.0491 56.5972 32.9593 56.8216 32.8546C57.046 32.7573 57.2405 32.6526 57.4051 32.5404C57.5696 32.4357 57.6968 32.331 57.7866 32.2412L59.2752 34.3357H59.2677ZM57.248 28.097C57.1208 27.7978 56.9488 27.536 56.7169 27.3265C56.485 27.1171 56.2082 26.9525 55.8791 26.8403C55.5574 26.7281 55.1909 26.6682 54.7869 26.6682C54.383 26.6682 54.0463 26.7206 53.7172 26.8328C53.3955 26.945 53.1038 27.1021 52.8495 27.3116C52.5951 27.521 52.3782 27.7754 52.2136 28.0821C52.0416 28.3813 51.9219 28.7179 51.8396 29.0919H57.4649C57.45 28.7329 57.3826 28.4037 57.2555 28.1045L57.248 28.097Z" fill="#FCFCFD"/>
<path d="M62.5218 24.3418L63.1726 21.3197H65.5215V24.3418H68.7081V26.758H65.5215V31.3136C65.5215 31.8073 65.5813 32.1963 65.6935 32.4731C65.8132 32.7499 66.0002 32.9444 66.262 33.0566C66.5238 33.1688 66.8605 33.1987 67.2644 33.1613C67.6683 33.1239 68.1471 33.0341 68.7081 32.892V35.3531C67.7656 35.6149 66.9128 35.7495 66.1498 35.757C65.3868 35.7645 64.7435 35.6523 64.2124 35.4204C63.6813 35.1885 63.2624 34.822 62.9706 34.3282C62.6789 33.8345 62.5293 33.2211 62.5293 32.4955V26.758H60.6666V24.3418H62.5293H62.5218Z" fill="#FCFCFD"/>
<path d="M79.6745 34.3357C79.4725 34.4928 79.2181 34.6574 78.9189 34.822C78.6197 34.994 78.2681 35.1511 77.8717 35.3007C77.4752 35.4503 77.0413 35.57 76.5701 35.6598C76.0988 35.7495 75.6051 35.8019 75.0964 35.8019C74.1988 35.8019 73.3834 35.6523 72.6578 35.3456C71.9322 35.0464 71.3113 34.6275 70.7951 34.1038C70.2865 33.5802 69.8825 32.9593 69.5983 32.2562C69.314 31.553 69.1719 30.79 69.1719 29.9671C69.1719 29.1443 69.3215 28.4037 69.6132 27.6931C69.905 26.9824 70.3164 26.3615 70.8325 25.8454C71.3487 25.3292 71.9771 24.9178 72.7027 24.6111C73.4283 24.3119 74.2287 24.1548 75.0964 24.1548C76.009 24.1548 76.8319 24.3044 77.55 24.6111C78.2681 24.9103 78.8815 25.3218 79.3752 25.8454C79.8689 26.3615 80.2505 26.9749 80.5048 27.6781C80.7591 28.3813 80.8863 29.1443 80.8863 29.9671C80.8863 30.1392 80.8788 30.3112 80.8639 30.4908C80.8489 30.6703 80.8265 30.8423 80.7965 31.0144L72.3137 30.992C72.4034 31.366 72.553 31.6876 72.7401 31.9569C72.9271 32.2262 73.159 32.4581 73.4283 32.6526C73.6901 32.8471 73.9893 32.9967 74.311 33.094C74.6326 33.1912 74.9767 33.2436 75.3358 33.2436C75.7397 33.2436 76.0988 33.2062 76.413 33.1239C76.7346 33.0491 77.0039 32.9593 77.2283 32.8546C77.4528 32.7573 77.6472 32.6526 77.8118 32.5404C77.9764 32.4357 78.1036 32.331 78.1933 32.2412L79.6819 34.3357H79.6745ZM77.6473 28.097C77.5201 27.7978 77.348 27.536 77.1161 27.3265C76.8842 27.1171 76.6075 26.9525 76.2783 26.8403C75.9567 26.7281 75.5901 26.6682 75.1862 26.6682C74.7822 26.6682 74.4456 26.7206 74.1165 26.8328C73.7948 26.945 73.5031 27.1021 73.2487 27.3116C72.9944 27.521 72.7775 27.7754 72.6129 28.0821C72.4408 28.3813 72.3212 28.7179 72.2389 29.0919H77.8642C77.8492 28.7329 77.7819 28.4037 77.6547 28.1045L77.6473 28.097Z" fill="#FCFCFD"/>
<path d="M91.0371 34.2235C90.5584 34.7023 89.9974 35.0838 89.354 35.3606C88.7107 35.6373 88.0001 35.7795 87.2296 35.7795C86.4591 35.7795 85.6662 35.6224 84.963 35.3157C84.2598 35.009 83.6464 34.5901 83.1303 34.059C82.6141 33.5353 82.2027 32.9144 81.896 32.2113C81.5968 31.5081 81.4397 30.7526 81.4397 29.9447C81.4397 29.1368 81.5893 28.3813 81.896 27.6781C82.1952 26.9749 82.6066 26.3541 83.1303 25.8304C83.6464 25.3068 84.2598 24.8879 84.963 24.5737C85.6662 24.2595 86.4217 24.1099 87.2296 24.1099C87.9253 24.1099 88.5686 24.2296 89.1595 24.4615C89.7505 24.6934 90.2666 25.0151 90.7155 25.4115L90.7379 18.8138H93.6927V35.5476H91.1344L91.0446 34.2235H91.0371ZM84.6787 31.2014C84.8583 31.5904 85.0902 31.927 85.3744 32.2262C85.6587 32.518 85.9953 32.7499 86.3768 32.9219C86.7583 33.094 87.1697 33.1763 87.6186 33.1763C88.0674 33.1763 88.5087 33.094 88.8977 32.9219C89.2867 32.7499 89.6233 32.518 89.9076 32.2262C90.1918 31.9345 90.4163 31.5904 90.5734 31.2014C90.7304 30.8124 90.8052 30.3935 90.8052 29.9447C90.8052 29.4959 90.723 29.077 90.5584 28.688C90.3938 28.299 90.1694 27.9624 89.8851 27.6632C89.6009 27.3714 89.2643 27.1395 88.8828 26.9675C88.5013 26.7954 88.0824 26.7131 87.6186 26.7131C87.1548 26.7131 86.7508 26.7954 86.3768 26.9675C85.9953 27.1395 85.6662 27.3714 85.3744 27.6632C85.0902 27.9549 84.8583 28.299 84.6787 28.688C84.4992 29.077 84.4094 29.4959 84.4094 29.9447C84.4094 30.3935 84.4992 30.8124 84.6787 31.2014Z" fill="#FCFCFD"/>
<path d="M98.5925 35.5476H95.6152V24.3418H98.1736L98.2932 26.0623C98.5251 25.7033 98.787 25.3816 99.0712 25.0973C99.3555 24.8131 99.6771 24.5812 100.036 24.4091C100.395 24.2371 100.777 24.1398 101.196 24.1099C101.615 24.08 102.063 24.1398 102.542 24.2969L102.52 27.1545C102.011 26.9824 101.517 26.9076 101.046 26.9375C100.575 26.96 100.156 27.0872 99.7893 27.3116C99.4228 27.536 99.1311 27.8576 98.9141 28.2765C98.6972 28.6955 98.5925 29.2041 98.5925 29.81V35.5476Z" fill="#FCFCFD"/>
<path d="M104.682 27.9923L103.028 26.0399C103.185 25.8828 103.41 25.6958 103.717 25.4713C104.016 25.2469 104.382 25.03 104.801 24.8355C105.22 24.6335 105.699 24.4615 106.23 24.3268C106.761 24.1847 107.352 24.1174 107.988 24.1174C108.669 24.1174 109.319 24.2071 109.925 24.3867C110.539 24.5662 111.07 24.843 111.526 25.2095C111.982 25.5835 112.342 26.0473 112.603 26.6159C112.865 27.1844 113 27.8576 113 28.6505V35.555H110.441L110.232 34.0664C110.03 34.3282 109.813 34.5676 109.566 34.7845C109.327 35.0015 109.058 35.181 108.751 35.3306C108.444 35.4802 108.123 35.5924 107.778 35.6672C107.427 35.742 107.053 35.7869 106.649 35.7869C106.058 35.7869 105.534 35.6971 105.07 35.5176C104.607 35.3381 104.21 35.0987 103.889 34.7845C103.567 34.4778 103.313 34.1113 103.148 33.7073C102.983 33.3034 102.894 32.8546 102.894 32.3683C102.894 31.8821 102.991 31.4108 103.193 30.9844C103.395 30.5581 103.709 30.1915 104.135 29.8773C104.562 29.5706 105.1 29.3163 105.751 29.1368C106.402 28.9498 107.18 28.86 108.078 28.86H110.172V28.6954C110.172 28.0446 109.978 27.5434 109.589 27.1844C109.2 26.8253 108.624 26.6533 107.846 26.6533C107.487 26.6533 107.143 26.6981 106.813 26.7954C106.477 26.8851 106.178 27.0048 105.908 27.147C105.639 27.2891 105.392 27.4312 105.175 27.5883C104.958 27.7454 104.794 27.8801 104.689 28.0072L104.682 27.9923ZM110.165 30.6852L108.257 30.6628C107.419 30.6628 106.821 30.8124 106.469 31.1191C106.11 31.4183 105.938 31.7774 105.938 32.1738C105.938 32.3459 105.976 32.5105 106.043 32.675C106.11 32.8396 106.215 32.9817 106.342 33.1014C106.477 33.2286 106.641 33.3333 106.851 33.4156C107.06 33.4979 107.307 33.5428 107.584 33.5428C107.876 33.5428 108.182 33.4829 108.489 33.3558C108.796 33.2286 109.073 33.0565 109.312 32.8321C109.551 32.6077 109.753 32.3309 109.918 32.0093C110.082 31.6876 110.165 31.3136 110.165 30.8947V30.6852Z" fill="#FCFCFD"/>
<path d="M28.336 39.183C26.81 44.8757 17.8484 47.6958 6.38084 46.8505C8.44545 43.1028 9.40295 37.3728 9.07381 30.7002C14.7964 30.7151 19.6662 29.7427 22.965 27.8875C27.184 31.6278 29.286 35.6448 28.336 39.183ZM0.590957 1.04011C0.388985 0.987749 0.194492 0.935386 0 0.890503C2.78274 5.34138 5.20641 10.9517 6.89699 17.2428C7.06905 17.8787 7.22613 18.507 7.37574 19.1429C13.8089 21.4768 19.2173 24.5737 22.965 27.8875C25.2241 26.6233 26.7427 24.9402 27.2962 22.8906C29.316 15.3203 17.3622 5.53588 0.590957 1.04011Z" fill="url(#paint0_linear_18_205)"/>
</g>
<defs>
<linearGradient id="paint0_linear_18_205" x1="14.2802" y1="47.0001" x2="14.2802" y2="0.890503" gradientUnits="userSpaceOnUse">
<stop stop-color="#8A00FF"/>
<stop offset="1" stop-color="#00C6FF"/>
</linearGradient>
<clipPath id="clip0_18_205">
<rect width="113" height="46.1096" fill="white" transform="translate(0 0.890503)"/>
</clipPath>
</defs>
</svg>
