<svg width="333" height="116" viewBox="0 0 333 116" fill="none" xmlns="http://www.w3.org/2000/svg">
<rect width="333" height="115.872" rx="12" fill="#F2F4F7"/>
<path d="M13.956 25.608V31.368H15.612C16.052 31.368 16.452 31.296 16.812 31.152C17.172 31.008 17.476 30.812 17.724 30.564C17.98 30.308 18.176 30.004 18.312 29.652C18.448 29.292 18.516 28.904 18.516 28.488C18.516 28.064 18.448 27.676 18.312 27.324C18.176 26.972 17.98 26.672 17.724 26.424C17.476 26.168 17.172 25.968 16.812 25.824C16.452 25.68 16.052 25.608 15.612 25.608H13.956ZM12.828 32.436V24.54H15.612C16.244 24.54 16.808 24.644 17.304 24.852C17.808 25.06 18.232 25.344 18.576 25.704C18.928 26.056 19.196 26.472 19.38 26.952C19.564 27.432 19.656 27.944 19.656 28.488C19.656 29.032 19.564 29.544 19.38 30.024C19.196 30.504 18.928 30.924 18.576 31.284C18.232 31.636 17.808 31.916 17.304 32.124C16.808 32.332 16.244 32.436 15.612 32.436H12.828ZM21.8642 32.436H20.7602V26.748H21.7202L21.7562 27.72C21.9402 27.408 22.1682 27.152 22.4402 26.952C22.7202 26.744 23.0402 26.64 23.4002 26.64C23.4882 26.64 23.5802 26.648 23.6762 26.664C23.7802 26.672 23.8842 26.696 23.9882 26.736V27.828C23.8122 27.772 23.6242 27.744 23.4242 27.744C23.1922 27.744 22.9802 27.792 22.7882 27.888C22.5962 27.976 22.4322 28.1 22.2962 28.26C22.1602 28.42 22.0522 28.612 21.9722 28.836C21.9002 29.06 21.8642 29.304 21.8642 29.568V32.436ZM24.742 27.66C24.854 27.548 24.99 27.432 25.15 27.312C25.31 27.192 25.494 27.084 25.702 26.988C25.91 26.884 26.138 26.8 26.386 26.736C26.634 26.672 26.902 26.64 27.19 26.64C27.542 26.64 27.862 26.692 28.15 26.796C28.438 26.892 28.686 27.036 28.894 27.228C29.102 27.42 29.262 27.656 29.374 27.936C29.494 28.208 29.554 28.52 29.554 28.872V32.436H28.594L28.522 31.584C28.298 31.888 28.022 32.124 27.694 32.292C27.366 32.46 26.986 32.544 26.554 32.544C26.266 32.544 26.002 32.5 25.762 32.412C25.53 32.324 25.33 32.204 25.162 32.052C24.994 31.892 24.862 31.708 24.766 31.5C24.678 31.284 24.634 31.052 24.634 30.804C24.634 30.292 24.838 29.88 25.246 29.568C25.654 29.248 26.246 29.088 27.022 29.088H28.486V28.968C28.486 28.528 28.374 28.196 28.15 27.972C27.926 27.748 27.606 27.636 27.19 27.636C26.998 27.636 26.81 27.66 26.626 27.708C26.45 27.756 26.286 27.82 26.134 27.9C25.99 27.972 25.854 28.056 25.726 28.152C25.606 28.24 25.502 28.332 25.414 28.428L24.742 27.66ZM28.486 29.94L27.142 29.928C26.686 29.92 26.346 29.996 26.122 30.156C25.906 30.316 25.798 30.516 25.798 30.756C25.798 30.972 25.882 31.168 26.05 31.344C26.226 31.52 26.49 31.608 26.842 31.608C27.058 31.608 27.266 31.572 27.466 31.5C27.666 31.42 27.838 31.312 27.982 31.176C28.134 31.032 28.254 30.864 28.342 30.672C28.438 30.48 28.486 30.272 28.486 30.048V29.94ZM31.3323 26.748L32.6283 31.296H32.6523L33.9603 26.748H35.1123L36.4683 31.296H36.4923L37.7043 26.748H38.9403L37.1763 32.436H35.8323L34.5363 28.164H34.5123L33.2883 32.436H31.9443L30.0963 26.748H31.3323ZM40.9189 32.436H39.8149V26.748H40.7749L40.8229 27.78C41.0549 27.444 41.3349 27.172 41.6629 26.964C41.9989 26.748 42.3709 26.64 42.7789 26.64C43.2029 26.64 43.5629 26.708 43.8589 26.844C44.1549 26.98 44.3949 27.168 44.5789 27.408C44.7629 27.648 44.8949 27.928 44.9749 28.248C45.0629 28.568 45.1069 28.912 45.1069 29.28V32.436H44.0029V29.448C44.0029 29.2 43.9829 28.968 43.9429 28.752C43.9029 28.536 43.8309 28.348 43.7269 28.188C43.6309 28.028 43.4949 27.904 43.3189 27.816C43.1429 27.72 42.9189 27.672 42.6469 27.672C42.3989 27.672 42.1709 27.724 41.9629 27.828C41.7549 27.932 41.5709 28.072 41.4109 28.248C41.2589 28.424 41.1389 28.628 41.0509 28.86C40.9629 29.084 40.9189 29.32 40.9189 29.568V32.436ZM50.6103 32.436H49.5063V26.748H50.4663L50.5143 27.78C50.7463 27.444 51.0263 27.172 51.3543 26.964C51.6903 26.748 52.0623 26.64 52.4703 26.64C52.8943 26.64 53.2543 26.708 53.5503 26.844C53.8463 26.98 54.0863 27.168 54.2703 27.408C54.4543 27.648 54.5863 27.928 54.6663 28.248C54.7543 28.568 54.7983 28.912 54.7983 29.28V32.436H53.6943V29.448C53.6943 29.2 53.6743 28.968 53.6343 28.752C53.5943 28.536 53.5223 28.348 53.4183 28.188C53.3223 28.028 53.1863 27.904 53.0103 27.816C52.8343 27.72 52.6103 27.672 52.3383 27.672C52.0903 27.672 51.8623 27.724 51.6543 27.828C51.4463 27.932 51.2623 28.072 51.1023 28.248C50.9503 28.424 50.8303 28.628 50.7423 28.86C50.6543 29.084 50.6103 29.32 50.6103 29.568V32.436ZM60.2657 26.748H61.3577V32.436H60.3857L60.3497 31.44C60.1337 31.768 59.8577 32.036 59.5217 32.244C59.1937 32.444 58.8137 32.544 58.3817 32.544C57.9497 32.544 57.5857 32.476 57.2897 32.34C57.0017 32.204 56.7657 32.016 56.5817 31.776C56.3977 31.536 56.2657 31.256 56.1857 30.936C56.1057 30.608 56.0657 30.26 56.0657 29.892V26.748H57.1697V29.616C57.1697 29.888 57.1857 30.14 57.2177 30.372C57.2577 30.604 57.3297 30.804 57.4337 30.972C57.5377 31.14 57.6777 31.272 57.8537 31.368C58.0297 31.464 58.2537 31.512 58.5257 31.512C58.7737 31.512 59.0017 31.46 59.2097 31.356C59.4257 31.252 59.6097 31.112 59.7617 30.936C59.9217 30.76 60.0457 30.56 60.1337 30.336C60.2217 30.104 60.2657 29.864 60.2657 29.616V26.748ZM64.0048 32.436H62.9008V26.748H63.8608L63.9088 27.72C64.1248 27.4 64.3928 27.14 64.7128 26.94C65.0328 26.74 65.4048 26.64 65.8288 26.64C66.3728 26.64 66.8048 26.752 67.1248 26.976C67.4528 27.2 67.6928 27.5 67.8448 27.876C68.0768 27.516 68.3648 27.22 68.7088 26.988C69.0608 26.756 69.4648 26.64 69.9208 26.64C70.3368 26.64 70.6888 26.708 70.9768 26.844C71.2648 26.98 71.4968 27.168 71.6728 27.408C71.8488 27.648 71.9768 27.928 72.0568 28.248C72.1368 28.568 72.1768 28.912 72.1768 29.28V32.436H71.0848V29.448C71.0848 29.2 71.0688 28.968 71.0368 28.752C71.0048 28.536 70.9408 28.348 70.8448 28.188C70.7488 28.028 70.6128 27.904 70.4368 27.816C70.2688 27.72 70.0488 27.672 69.7768 27.672C69.5288 27.672 69.3008 27.724 69.0928 27.828C68.8928 27.932 68.7168 28.072 68.5648 28.248C68.4128 28.424 68.2928 28.628 68.2048 28.86C68.1248 29.084 68.0848 29.32 68.0848 29.568V32.436H66.9928V29.448C66.9928 29.208 66.9768 28.98 66.9448 28.764C66.9128 28.548 66.8488 28.36 66.7528 28.2C66.6568 28.032 66.5248 27.904 66.3568 27.816C66.1888 27.72 65.9648 27.672 65.6848 27.672C65.4368 27.672 65.2088 27.724 65.0008 27.828C64.8008 27.932 64.6248 28.072 64.4728 28.248C64.3288 28.424 64.2128 28.628 64.1248 28.86C64.0448 29.084 64.0048 29.32 64.0048 29.568V32.436ZM73.6823 23.796H74.7863V27.468C75.0263 27.212 75.3063 27.012 75.6263 26.868C75.9543 26.716 76.3183 26.64 76.7183 26.64C77.1263 26.64 77.5063 26.72 77.8583 26.88C78.2183 27.032 78.5263 27.244 78.7823 27.516C79.0463 27.78 79.2543 28.092 79.4063 28.452C79.5583 28.804 79.6343 29.184 79.6343 29.592C79.6343 30 79.5583 30.384 79.4063 30.744C79.2543 31.096 79.0463 31.408 78.7823 31.68C78.5263 31.944 78.2183 32.156 77.8583 32.316C77.5063 32.468 77.1263 32.544 76.7183 32.544C76.2943 32.544 75.9103 32.464 75.5663 32.304C75.2223 32.136 74.9303 31.908 74.6903 31.62L74.6423 32.436H73.6823V23.796ZM78.5183 29.592C78.5183 29.328 78.4663 29.08 78.3623 28.848C78.2663 28.608 78.1303 28.4 77.9543 28.224C77.7863 28.048 77.5863 27.908 77.3543 27.804C77.1303 27.7 76.8863 27.648 76.6223 27.648C76.3343 27.648 76.0743 27.7 75.8423 27.804C75.6103 27.9 75.4103 28.036 75.2423 28.212C75.0743 28.38 74.9423 28.584 74.8463 28.824C74.7583 29.056 74.7143 29.312 74.7143 29.592C74.7143 29.864 74.7583 30.12 74.8463 30.36C74.9343 30.592 75.0583 30.796 75.2183 30.972C75.3863 31.148 75.5863 31.288 75.8183 31.392C76.0583 31.488 76.3263 31.536 76.6223 31.536C76.8863 31.536 77.1303 31.484 77.3543 31.38C77.5863 31.276 77.7863 31.136 77.9543 30.96C78.1303 30.784 78.2663 30.58 78.3623 30.348C78.4663 30.108 78.5183 29.856 78.5183 29.592ZM85.6545 31.848C85.5425 31.928 85.4105 32.012 85.2585 32.1C85.1145 32.18 84.9505 32.256 84.7665 32.328C84.5905 32.392 84.3905 32.444 84.1665 32.484C83.9425 32.532 83.6985 32.556 83.4345 32.556C82.9705 32.556 82.5545 32.48 82.1865 32.328C81.8265 32.168 81.5185 31.956 81.2625 31.692C81.0065 31.42 80.8105 31.104 80.6745 30.744C80.5385 30.384 80.4705 30 80.4705 29.592C80.4705 29.184 80.5425 28.8 80.6865 28.44C80.8305 28.08 81.0305 27.768 81.2865 27.504C81.5505 27.24 81.8625 27.032 82.2225 26.88C82.5905 26.72 82.9945 26.64 83.4345 26.64C83.8985 26.64 84.3065 26.72 84.6585 26.88C85.0185 27.032 85.3185 27.24 85.5585 27.504C85.7985 27.768 85.9785 28.08 86.0985 28.44C86.2185 28.8 86.2785 29.184 86.2785 29.592C86.2785 29.664 86.2745 29.74 86.2665 29.82C86.2585 29.892 86.2465 29.968 86.2305 30.048H81.6585C81.7465 30.512 81.9585 30.88 82.2945 31.152C82.6305 31.416 83.0265 31.548 83.4825 31.548C83.8985 31.548 84.2305 31.492 84.4785 31.38C84.7345 31.26 84.9425 31.136 85.1025 31.008L85.6545 31.848ZM85.1265 29.184C85.1185 28.696 84.9625 28.316 84.6585 28.044C84.3625 27.772 83.9625 27.636 83.4585 27.636C82.9625 27.636 82.5545 27.78 82.2345 28.068C81.9225 28.348 81.7265 28.72 81.6465 29.184H85.1265ZM88.5439 32.436H87.4399V26.748H88.3999L88.4359 27.72C88.6199 27.408 88.8479 27.152 89.1199 26.952C89.3999 26.744 89.7199 26.64 90.0799 26.64C90.1679 26.64 90.2599 26.648 90.3559 26.664C90.4599 26.672 90.5639 26.696 90.6679 26.736V27.828C90.4919 27.772 90.3039 27.744 90.1039 27.744C89.8719 27.744 89.6599 27.792 89.4679 27.888C89.2759 27.976 89.1119 28.1 88.9759 28.26C88.8399 28.42 88.7319 28.612 88.6519 28.836C88.5799 29.06 88.5439 29.304 88.5439 29.568V32.436ZM91.4301 31.716C91.4301 31.484 91.5101 31.288 91.6701 31.128C91.8301 30.96 92.0261 30.876 92.2581 30.876C92.4901 30.876 92.6861 30.96 92.8461 31.128C93.0141 31.288 93.0981 31.484 93.0981 31.716C93.0981 31.948 93.0141 32.148 92.8461 32.316C92.6861 32.476 92.4901 32.556 92.2581 32.556C92.0341 32.556 91.8381 32.476 91.6701 32.316C91.5101 32.148 91.4301 31.948 91.4301 31.716ZM91.4301 27.324C91.4301 27.092 91.5101 26.892 91.6701 26.724C91.8301 26.556 92.0261 26.472 92.2581 26.472C92.4901 26.472 92.6861 26.556 92.8461 26.724C93.0141 26.892 93.0981 27.092 93.0981 27.324C93.0981 27.548 93.0141 27.744 92.8461 27.912C92.6861 28.072 92.4901 28.152 92.2581 28.152C92.0341 28.152 91.8381 28.072 91.6701 27.912C91.5101 27.752 91.4301 27.556 91.4301 27.324Z" fill="#1D2939"/>
<g filter="url(#filter0_i_106_4068)">
<rect x="107" y="13" width="31.8723" height="31.8723" rx="15.9362" fill="#EBFAFF"/>
<g filter="url(#filter1_f_106_4068)">
<path d="M112.123 22.6754C114.024 17.8562 114.321 18.1059 119.806 16.9839" stroke="#00C6FF" stroke-width="0.569149" stroke-linecap="round"/>
</g>
<path d="M122.997 22.5542L121.454 26.885C121.602 26.8116 121.789 26.7563 122.017 26.7191C122.676 26.6113 123.293 26.6212 123.867 26.7487C124.452 26.8623 124.972 27.0724 125.428 27.3792C125.883 27.6741 126.259 28.0555 126.557 28.5235C126.855 28.9915 127.051 29.5131 127.145 30.0882C127.239 30.6634 127.219 31.2203 127.086 31.7588C126.95 32.2854 126.715 32.7667 126.381 33.2028C126.044 33.627 125.618 33.992 125.102 34.2978C124.596 34.5897 124.013 34.7895 123.354 34.8973C122.695 35.005 122.074 35.0021 121.489 34.8885C120.915 34.761 120.399 34.5439 119.943 34.2371C119.487 33.9303 119.105 33.5498 118.797 33.0958C118.501 32.6398 118.306 32.1242 118.212 31.549C118.155 31.2015 118.148 30.8581 118.191 30.5189C118.232 30.1677 118.311 29.8227 118.428 29.4837L120.678 22.9333L122.997 22.5542ZM120.476 31.1787C120.523 31.4662 120.621 31.727 120.77 31.961C120.929 32.1811 121.12 32.3653 121.341 32.5137C121.574 32.6601 121.831 32.7657 122.112 32.8305C122.393 32.8952 122.69 32.9021 123.001 32.8512C123.624 32.7493 124.108 32.4733 124.453 32.0232C124.81 31.5712 124.94 31.0516 124.844 30.4644C124.746 29.8653 124.456 29.4083 123.974 29.0934C123.504 28.7766 122.957 28.6692 122.334 28.771C122.035 28.82 121.756 28.921 121.498 29.0739C121.252 29.2248 121.042 29.4068 120.867 29.6199C120.705 29.831 120.585 30.0721 120.506 30.3434C120.439 30.6126 120.429 30.8911 120.476 31.1787Z" fill="url(#paint0_linear_106_4068)"/>
</g>
<g filter="url(#filter2_i_106_4068)">
<rect x="143.426" y="13" width="31.8723" height="31.8723" rx="15.9362" fill="#EBFAFF"/>
<g filter="url(#filter3_f_106_4068)">
<path d="M148.548 22.6754C150.45 17.8562 150.746 18.1059 156.232 16.9839" stroke="#00C6FF" stroke-width="0.569149" stroke-linecap="round"/>
</g>
<path d="M162.304 31.8942H156.421V30.4189L160.737 22.5692H163.378L159.262 29.9272H162.304V27.2681H164.653V29.9272H165.837V31.8942H164.653V34.5532H162.304V31.8942Z" fill="url(#paint1_linear_106_4068)"/>
</g>
<g filter="url(#filter4_i_106_4068)">
<rect x="179.851" y="13" width="31.8723" height="31.8723" rx="15.9362" fill="#EBFAFF"/>
<g filter="url(#filter5_f_106_4068)">
<path d="M184.974 22.6754C186.875 17.8562 187.172 18.1059 192.657 16.9839" stroke="#00C6FF" stroke-width="0.569149" stroke-linecap="round"/>
</g>
<path d="M192.415 31.6441C192.303 30.9243 192.389 30.2904 192.672 29.7425C192.966 29.1807 193.415 28.7115 194.02 28.3347C193.437 28.1428 192.955 27.8491 192.574 27.4538C192.203 27.0445 191.97 26.534 191.875 25.9221C191.801 25.4422 191.834 24.9884 191.977 24.5608C192.131 24.1312 192.379 23.7486 192.72 23.413C193.059 23.0653 193.48 22.7724 193.984 22.5343C194.488 22.2962 195.057 22.1277 195.693 22.0288C196.329 21.9299 196.923 21.9173 197.475 21.9911C198.027 22.065 198.512 22.2169 198.929 22.447C199.355 22.6632 199.708 22.9525 199.985 23.3148C200.263 23.6771 200.439 24.0982 200.513 24.5781C200.609 25.19 200.53 25.7491 200.277 26.2554C200.034 26.7478 199.658 27.175 199.149 27.5368C199.84 27.7119 200.41 28.0225 200.861 28.4685C201.321 28.9007 201.607 29.4767 201.719 30.1966C201.801 30.7245 201.756 31.223 201.583 31.6923C201.421 32.1476 201.153 32.558 200.78 32.9232C200.418 33.2866 199.968 33.5902 199.428 33.8339C198.891 34.0896 198.286 34.2697 197.614 34.3742C196.942 34.4788 196.305 34.4918 195.703 34.4135C195.115 34.3452 194.588 34.1938 194.121 33.9592C193.666 33.7227 193.286 33.4132 192.981 33.0306C192.686 32.6342 192.497 32.172 192.415 31.6441ZM194.842 31.0086C194.931 31.5845 195.204 31.9966 195.661 32.2451C196.117 32.4936 196.663 32.5683 197.299 32.4694C197.947 32.3686 198.445 32.1315 198.792 31.7579C199.151 31.3825 199.286 30.9069 199.197 30.331C199.111 29.7791 198.84 29.3789 198.383 29.1305C197.937 28.8681 197.396 28.7864 196.76 28.8854C196.112 28.9862 195.609 29.2303 195.252 29.6177C194.892 29.993 194.756 30.4567 194.842 31.0086ZM194.398 25.7877C194.476 26.2915 194.705 26.6553 195.084 26.879C195.473 27.0888 195.937 27.1517 196.477 27.0677C197.029 26.9819 197.452 26.7808 197.747 26.4646C198.052 26.1346 198.166 25.7176 198.087 25.2137C198.011 24.7218 197.783 24.364 197.404 24.1403C197.025 23.9166 196.554 23.8487 195.99 23.9364C195.426 24.0241 194.998 24.2321 194.705 24.5603C194.424 24.8866 194.321 25.2958 194.398 25.7877Z" fill="url(#paint2_linear_106_4068)"/>
</g>
<g filter="url(#filter6_i_106_4068)">
<rect x="216.276" y="13" width="31.8723" height="31.8723" rx="15.9362" fill="#EBFAFF"/>
<g filter="url(#filter7_f_106_4068)">
<path d="M221.399 22.6754C223.301 17.8562 223.597 18.1059 229.082 16.9839" stroke="#00C6FF" stroke-width="0.569149" stroke-linecap="round"/>
</g>
<path d="M227.18 28.0237C227.318 26.9764 227.558 26.0834 227.9 25.3446C228.244 24.5938 228.66 23.9934 229.147 23.5432C229.649 23.0826 230.205 22.7639 230.816 22.5871C231.427 22.4103 232.07 22.3663 232.744 22.455C233.418 22.5437 234.028 22.7524 234.572 23.0813C235.117 23.4101 235.566 23.861 235.919 24.4341C236.274 24.9951 236.52 25.6827 236.658 26.4969C236.797 27.299 236.798 28.2237 236.66 29.271C236.522 30.3184 236.282 31.2174 235.938 31.9682C235.596 32.707 235.18 33.3075 234.691 33.7697C234.203 34.2198 233.653 34.5333 233.042 34.7101C232.431 34.8868 231.789 34.9309 231.114 34.8422C230.44 34.7535 229.831 34.5447 229.286 34.2159C228.742 33.8871 228.286 33.4413 227.919 32.8787C227.566 32.3057 227.32 31.6181 227.18 30.8159C227.042 30.0018 227.042 29.0711 227.18 28.0237ZM229.564 28.3373C229.483 28.9513 229.458 29.5114 229.49 30.0176C229.521 30.5238 229.61 30.9642 229.757 31.3386C229.903 31.7131 230.109 32.0156 230.372 32.2462C230.648 32.4784 230.99 32.6215 231.399 32.6753C231.797 32.7276 232.152 32.6764 232.467 32.5218C232.793 32.3688 233.075 32.1304 233.314 31.8067C233.553 31.4829 233.752 31.0806 233.914 30.5997C234.075 30.1188 234.196 29.5714 234.277 28.9574C234.438 27.7295 234.374 26.7291 234.084 25.9561C233.807 25.1727 233.266 24.728 232.459 24.6218C231.653 24.5157 231.008 24.8045 230.527 25.4881C230.046 26.1597 229.725 27.1095 229.564 28.3373Z" fill="url(#paint3_linear_106_4068)"/>
</g>
<g filter="url(#filter8_i_106_4068)">
<rect x="252.702" y="13" width="31.8723" height="31.8723" rx="15.9362" fill="#EBFAFF"/>
<g filter="url(#filter9_f_106_4068)">
<path d="M257.825 22.6754C259.726 17.8562 260.023 18.1059 265.508 16.9839" stroke="#00C6FF" stroke-width="0.569149" stroke-linecap="round"/>
</g>
<path d="M267.427 24.7183H266.007V22.5692H269.795V34.5532H267.427V24.7183Z" fill="url(#paint4_linear_106_4068)"/>
</g>
<g filter="url(#filter10_i_106_4068)">
<rect x="289.127" y="13" width="31.8723" height="31.8723" rx="15.9362" fill="#EBFAFF"/>
<g filter="url(#filter11_f_106_4068)">
<path d="M294.25 22.6754C296.152 17.8562 296.448 18.1059 301.934 16.9839" stroke="#00C6FF" stroke-width="0.569149" stroke-linecap="round"/>
</g>
<path d="M307.593 22.9196L304.814 26.582C304.977 26.5567 305.173 26.5607 305.401 26.594C306.062 26.6903 306.647 26.886 307.156 27.1811C307.679 27.466 308.112 27.8235 308.454 28.2538C308.798 28.672 309.041 29.1492 309.184 29.6854C309.326 30.2215 309.356 30.778 309.272 31.3547C309.188 31.9314 309.001 32.4563 308.711 32.9294C308.423 33.3905 308.053 33.7783 307.602 34.093C307.153 34.3956 306.637 34.6148 306.053 34.7505C305.482 34.8759 304.867 34.8904 304.206 34.7941C303.545 34.6977 302.953 34.5071 302.43 34.2223C301.921 33.9272 301.495 33.5645 301.153 33.1343C300.811 32.704 300.562 32.2259 300.405 31.7C300.261 31.1759 300.231 30.6255 300.315 30.0488C300.365 29.7003 300.463 29.3709 300.606 29.0605C300.751 28.7381 300.931 28.433 301.144 28.1451L305.269 22.5807L307.593 22.9196ZM302.585 30.3798C302.543 30.6682 302.558 30.9464 302.629 31.2145C302.715 31.4723 302.84 31.7053 303.006 31.9136C303.184 32.1236 303.397 32.3019 303.646 32.4486C303.894 32.5953 304.175 32.6914 304.487 32.7369C305.112 32.828 305.657 32.7111 306.121 32.3862C306.598 32.063 306.879 31.6071 306.965 31.0183C307.052 30.4176 306.914 29.8943 306.55 29.4486C306.197 29.0045 305.708 28.737 305.084 28.6459C304.783 28.6021 304.487 28.6141 304.195 28.6819C303.915 28.7515 303.66 28.8616 303.429 29.012C303.211 29.1642 303.023 29.3577 302.866 29.5925C302.721 29.829 302.627 30.0915 302.585 30.3798Z" fill="url(#paint5_linear_106_4068)"/>
</g>
<path d="M18.348 66.0446H15.852V72.8726H14.724V66.0446H12.204V64.9766H18.348V66.0446ZM19.3665 67.1846H20.4705V72.8726H19.3665V67.1846ZM19.1385 65.6006C19.1385 65.3846 19.2145 65.2006 19.3665 65.0486C19.5185 64.8886 19.7025 64.8086 19.9185 64.8086C20.1345 64.8086 20.3185 64.8886 20.4705 65.0486C20.6305 65.2006 20.7105 65.3846 20.7105 65.6006C20.7105 65.8166 20.6305 66.0046 20.4705 66.1646C20.3185 66.3246 20.1345 66.4046 19.9185 66.4046C19.7025 66.4046 19.5185 66.3246 19.3665 66.1646C19.2145 66.0046 19.1385 65.8166 19.1385 65.6006ZM27.1872 71.5046C26.9392 71.9526 26.5872 72.3126 26.1312 72.5846C25.6832 72.8486 25.1712 72.9806 24.5952 72.9806C24.1792 72.9806 23.7912 72.9046 23.4312 72.7526C23.0712 72.6006 22.7552 72.3926 22.4832 72.1286C22.2112 71.8566 21.9952 71.5406 21.8352 71.1806C21.6832 70.8206 21.6072 70.4366 21.6072 70.0286C21.6072 69.6206 21.6832 69.2366 21.8352 68.8766C21.9952 68.5166 22.2112 68.2046 22.4832 67.9406C22.7552 67.6686 23.0712 67.4566 23.4312 67.3046C23.7912 67.1526 24.1792 67.0766 24.5952 67.0766C25.1712 67.0766 25.6832 67.2126 26.1312 67.4846C26.5872 67.7486 26.9392 68.1046 27.1872 68.5526L26.2512 69.0686C26.0912 68.7886 25.8672 68.5566 25.5792 68.3726C25.2912 68.1806 24.9672 68.0846 24.6072 68.0846C24.3432 68.0846 24.0952 68.1366 23.8632 68.2406C23.6392 68.3366 23.4392 68.4726 23.2632 68.6486C23.0952 68.8246 22.9592 69.0326 22.8552 69.2726C22.7592 69.5046 22.7112 69.7566 22.7112 70.0286C22.7112 70.3006 22.7592 70.5566 22.8552 70.7966C22.9592 71.0286 23.0952 71.2326 23.2632 71.4086C23.4392 71.5846 23.6392 71.7246 23.8632 71.8286C24.0952 71.9246 24.3432 71.9726 24.6072 71.9726C24.9672 71.9726 25.2912 71.8806 25.5792 71.6966C25.8672 71.5046 26.0912 71.2686 26.2512 70.9886L27.1872 71.5046ZM29.3056 72.8726H28.2016V64.2326H29.3056V69.8486L31.8976 67.1846H33.3496L31.0096 69.5126L33.6016 72.8726H32.2576L30.2296 70.2446L29.3056 71.1566V72.8726ZM38.885 72.2846C38.773 72.3646 38.641 72.4486 38.489 72.5366C38.345 72.6166 38.181 72.6926 37.997 72.7646C37.821 72.8286 37.621 72.8806 37.397 72.9206C37.173 72.9686 36.929 72.9926 36.665 72.9926C36.201 72.9926 35.785 72.9166 35.417 72.7646C35.057 72.6046 34.749 72.3926 34.493 72.1286C34.237 71.8566 34.041 71.5406 33.905 71.1806C33.769 70.8206 33.701 70.4366 33.701 70.0286C33.701 69.6206 33.773 69.2366 33.917 68.8766C34.061 68.5166 34.261 68.2046 34.517 67.9406C34.781 67.6766 35.093 67.4686 35.453 67.3166C35.821 67.1566 36.225 67.0766 36.665 67.0766C37.129 67.0766 37.537 67.1566 37.889 67.3166C38.249 67.4686 38.549 67.6766 38.789 67.9406C39.029 68.2046 39.209 68.5166 39.329 68.8766C39.449 69.2366 39.509 69.6206 39.509 70.0286C39.509 70.1006 39.505 70.1766 39.497 70.2566C39.489 70.3286 39.477 70.4046 39.461 70.4846H34.889C34.977 70.9486 35.189 71.3166 35.525 71.5886C35.861 71.8526 36.257 71.9846 36.713 71.9846C37.129 71.9846 37.461 71.9286 37.709 71.8166C37.965 71.6966 38.173 71.5726 38.333 71.4446L38.885 72.2846ZM38.357 69.6206C38.349 69.1326 38.193 68.7526 37.889 68.4806C37.593 68.2086 37.193 68.0726 36.689 68.0726C36.193 68.0726 35.785 68.2166 35.465 68.5046C35.153 68.7846 34.957 69.1566 34.877 69.6206H38.357ZM41.1032 67.1846L41.3432 65.6246H42.1952V67.1846H43.9592V68.1326H42.1952V70.9766C42.1952 71.3446 42.2552 71.6006 42.3752 71.7446C42.5032 71.8806 42.6952 71.9486 42.9512 71.9486C43.0872 71.9486 43.2352 71.9366 43.3952 71.9126C43.5632 71.8806 43.7512 71.8406 43.9592 71.7926V72.7766C43.7192 72.8486 43.4952 72.9006 43.2872 72.9326C43.0792 72.9646 42.8832 72.9806 42.6992 72.9806C42.1552 72.9806 41.7512 72.8406 41.4872 72.5606C41.2312 72.2726 41.1032 71.8846 41.1032 71.3966V68.1326H40.0232V67.1846H41.1032ZM50.6663 64.9766H51.9143L55.0943 72.8726H53.8703L53.1983 71.1806H49.4063L48.7103 72.8726H47.4863L50.6663 64.9766ZM49.8023 70.1606H52.7903L51.3143 66.3926H51.2903L49.8023 70.1606ZM55.723 72.1526C55.723 71.9206 55.803 71.7246 55.963 71.5646C56.123 71.3966 56.319 71.3126 56.551 71.3126C56.783 71.3126 56.979 71.3966 57.139 71.5646C57.307 71.7246 57.391 71.9206 57.391 72.1526C57.391 72.3846 57.307 72.5846 57.139 72.7526C56.979 72.9126 56.783 72.9926 56.551 72.9926C56.327 72.9926 56.131 72.9126 55.963 72.7526C55.803 72.5846 55.723 72.3846 55.723 72.1526ZM55.723 67.7606C55.723 67.5286 55.803 67.3286 55.963 67.1606C56.123 66.9926 56.319 66.9086 56.551 66.9086C56.783 66.9086 56.979 66.9926 57.139 67.1606C57.307 67.3286 57.391 67.5286 57.391 67.7606C57.391 67.9846 57.307 68.1806 57.139 68.3486C56.979 68.5086 56.783 68.5886 56.551 68.5886C56.327 68.5886 56.131 68.5086 55.963 68.3486C55.803 68.1886 55.723 67.9926 55.723 67.7606Z" fill="#1D2939"/>
<rect x="103.5" y="57.3726" width="108" height="31" rx="15.5" stroke="url(#paint6_linear_106_4068)"/>
<path d="M122.92 67.3446L120.968 70.8806C121.107 70.8379 121.277 70.8166 121.48 70.8166C122.067 70.8166 122.6 70.9126 123.08 71.1046C123.571 71.2859 123.992 71.5419 124.344 71.8726C124.696 72.1926 124.968 72.5766 125.16 73.0246C125.352 73.4726 125.448 73.9526 125.448 74.4646C125.448 74.9766 125.352 75.4566 125.16 75.9046C124.968 76.3419 124.696 76.7259 124.344 77.0566C123.992 77.3766 123.571 77.6326 123.08 77.8246C122.6 78.0059 122.067 78.0966 121.48 78.0966C120.893 78.0966 120.355 78.0059 119.864 77.8246C119.384 77.6326 118.968 77.3712 118.616 77.0406C118.264 76.7099 117.987 76.3259 117.784 75.8886C117.592 75.4512 117.496 74.9766 117.496 74.4646C117.496 74.1552 117.539 73.8566 117.624 73.5686C117.709 73.2699 117.827 72.9819 117.976 72.7046L120.856 67.3446H122.92ZM119.512 74.4646C119.512 74.7206 119.56 74.9606 119.656 75.1846C119.763 75.3979 119.901 75.5846 120.072 75.7446C120.253 75.9046 120.461 76.0326 120.696 76.1286C120.931 76.2246 121.187 76.2726 121.464 76.2726C122.019 76.2726 122.477 76.1019 122.84 75.7606C123.213 75.4192 123.4 74.9872 123.4 74.4646C123.4 73.9312 123.213 73.4939 122.84 73.1526C122.477 72.8112 122.019 72.6406 121.464 72.6406C121.197 72.6406 120.941 72.6886 120.696 72.7846C120.461 72.8806 120.253 73.0086 120.072 73.1686C119.901 73.3286 119.763 73.5206 119.656 73.7446C119.56 73.9686 119.512 74.2086 119.512 74.4646Z" fill="#1D2439"/>
<path d="M157.584 75.5366H152.416V74.2406L156.208 67.3446H158.528L154.912 73.8086H157.584V71.4726H159.648V73.8086H160.688V75.5366H159.648V77.8726H157.584V75.5366Z" fill="#1D2439"/>
<path d="M188.688 75.0246C188.688 74.3846 188.848 73.8459 189.168 73.4086C189.499 72.9606 189.952 72.6139 190.528 72.3686C190.048 72.1232 189.669 71.8032 189.392 71.4086C189.125 71.0032 188.992 70.5286 188.992 69.9846C188.992 69.5579 189.083 69.1686 189.264 68.8166C189.456 68.4646 189.723 68.1659 190.064 67.9206C190.405 67.6646 190.811 67.4672 191.28 67.3286C191.749 67.1899 192.267 67.1206 192.832 67.1206C193.397 67.1206 193.915 67.1899 194.384 67.3286C194.853 67.4672 195.253 67.6646 195.584 67.9206C195.925 68.1659 196.192 68.4646 196.384 68.8166C196.576 69.1686 196.672 69.5579 196.672 69.9846C196.672 70.5286 196.528 71.0032 196.24 71.4086C195.963 71.8032 195.579 72.1232 195.088 72.3686C195.664 72.6139 196.117 72.9606 196.448 73.4086C196.789 73.8459 196.96 74.3846 196.96 75.0246C196.96 75.4939 196.853 75.9206 196.64 76.3046C196.437 76.6779 196.149 76.9979 195.776 77.2646C195.413 77.5312 194.981 77.7339 194.48 77.8726C193.979 78.0219 193.429 78.0966 192.832 78.0966C192.235 78.0966 191.68 78.0219 191.168 77.8726C190.667 77.7339 190.229 77.5312 189.856 77.2646C189.493 76.9979 189.205 76.6779 188.992 76.3046C188.789 75.9206 188.688 75.4939 188.688 75.0246ZM190.88 74.8006C190.88 75.3126 191.061 75.7072 191.424 75.9846C191.787 76.2619 192.251 76.4006 192.816 76.4006C193.392 76.4006 193.856 76.2619 194.208 75.9846C194.571 75.7072 194.752 75.3126 194.752 74.8006C194.752 74.3099 194.571 73.9259 194.208 73.6486C193.856 73.3606 193.397 73.2166 192.832 73.2166C192.256 73.2166 191.787 73.3606 191.424 73.6486C191.061 73.9259 190.88 74.3099 190.88 74.8006ZM191.2 70.2086C191.2 70.6566 191.349 71.0032 191.648 71.2486C191.957 71.4832 192.352 71.6006 192.832 71.6006C193.323 71.6006 193.717 71.4832 194.016 71.2486C194.325 71.0032 194.48 70.6566 194.48 70.2086C194.48 69.7712 194.331 69.4299 194.032 69.1846C193.733 68.9392 193.333 68.8166 192.832 68.8166C192.331 68.8166 191.931 68.9392 191.632 69.1846C191.344 69.4299 191.2 69.7712 191.2 70.2086Z" fill="#1D2439"/>
<path d="M225.688 75.0246C225.688 74.3846 225.848 73.8459 226.168 73.4086C226.499 72.9606 226.952 72.6139 227.528 72.3686C227.048 72.1232 226.669 71.8032 226.392 71.4086C226.125 71.0032 225.992 70.5286 225.992 69.9846C225.992 69.5579 226.083 69.1686 226.264 68.8166C226.456 68.4646 226.723 68.1659 227.064 67.9206C227.405 67.6646 227.811 67.4672 228.28 67.3286C228.749 67.1899 229.267 67.1206 229.832 67.1206C230.397 67.1206 230.915 67.1899 231.384 67.3286C231.853 67.4672 232.253 67.6646 232.584 67.9206C232.925 68.1659 233.192 68.4646 233.384 68.8166C233.576 69.1686 233.672 69.5579 233.672 69.9846C233.672 70.5286 233.528 71.0032 233.24 71.4086C232.963 71.8032 232.579 72.1232 232.088 72.3686C232.664 72.6139 233.117 72.9606 233.448 73.4086C233.789 73.8459 233.96 74.3846 233.96 75.0246C233.96 75.4939 233.853 75.9206 233.64 76.3046C233.437 76.6779 233.149 76.9979 232.776 77.2646C232.413 77.5312 231.981 77.7339 231.48 77.8726C230.979 78.0219 230.429 78.0966 229.832 78.0966C229.235 78.0966 228.68 78.0219 228.168 77.8726C227.667 77.7339 227.229 77.5312 226.856 77.2646C226.493 76.9979 226.205 76.6779 225.992 76.3046C225.789 75.9206 225.688 75.4939 225.688 75.0246ZM227.88 74.8006C227.88 75.3126 228.061 75.7072 228.424 75.9846C228.787 76.2619 229.251 76.4006 229.816 76.4006C230.392 76.4006 230.856 76.2619 231.208 75.9846C231.571 75.7072 231.752 75.3126 231.752 74.8006C231.752 74.3099 231.571 73.9259 231.208 73.6486C230.856 73.3606 230.397 73.2166 229.832 73.2166C229.256 73.2166 228.787 73.3606 228.424 73.6486C228.061 73.9259 227.88 74.3099 227.88 74.8006ZM228.2 70.2086C228.2 70.6566 228.349 71.0032 228.648 71.2486C228.957 71.4832 229.352 71.6006 229.832 71.6006C230.323 71.6006 230.717 71.4832 231.016 71.2486C231.325 71.0032 231.48 70.6566 231.48 70.2086C231.48 69.7712 231.331 69.4299 231.032 69.1846C230.733 68.9392 230.333 68.8166 229.832 68.8166C229.331 68.8166 228.931 68.9392 228.632 69.1846C228.344 69.4299 228.2 69.7712 228.2 70.2086Z" fill="#F04438"/>
<path d="M303.92 67.3446L301.968 70.8806C302.107 70.8379 302.277 70.8166 302.48 70.8166C303.067 70.8166 303.6 70.9126 304.08 71.1046C304.571 71.2859 304.992 71.5419 305.344 71.8726C305.696 72.1926 305.968 72.5766 306.16 73.0246C306.352 73.4726 306.448 73.9526 306.448 74.4646C306.448 74.9766 306.352 75.4566 306.16 75.9046C305.968 76.3419 305.696 76.7259 305.344 77.0566C304.992 77.3766 304.571 77.6326 304.08 77.8246C303.6 78.0059 303.067 78.0966 302.48 78.0966C301.893 78.0966 301.355 78.0059 300.864 77.8246C300.384 77.6326 299.968 77.3712 299.616 77.0406C299.264 76.7099 298.987 76.3259 298.784 75.8886C298.592 75.4512 298.496 74.9766 298.496 74.4646C298.496 74.1552 298.539 73.8566 298.624 73.5686C298.709 73.2699 298.827 72.9819 298.976 72.7046L301.856 67.3446H303.92ZM300.512 74.4646C300.512 74.7206 300.56 74.9606 300.656 75.1846C300.763 75.3979 300.901 75.5846 301.072 75.7446C301.253 75.9046 301.461 76.0326 301.696 76.1286C301.931 76.2246 302.187 76.2726 302.464 76.2726C303.019 76.2726 303.477 76.1019 303.84 75.7606C304.213 75.4192 304.4 74.9872 304.4 74.4646C304.4 73.9312 304.213 73.4939 303.84 73.1526C303.477 72.8112 303.019 72.6406 302.464 72.6406C302.197 72.6406 301.941 72.6886 301.696 72.7846C301.461 72.8806 301.253 73.0086 301.072 73.1686C300.901 73.3286 300.763 73.5206 300.656 73.7446C300.56 73.9686 300.512 74.2086 300.512 74.4646Z" fill="#98A2B3"/>
<path d="M260.688 75.0246C260.688 74.3846 260.848 73.8459 261.168 73.4086C261.499 72.9606 261.952 72.6139 262.528 72.3686C262.048 72.1232 261.669 71.8032 261.392 71.4086C261.125 71.0032 260.992 70.5286 260.992 69.9846C260.992 69.5579 261.083 69.1686 261.264 68.8166C261.456 68.4646 261.723 68.1659 262.064 67.9206C262.405 67.6646 262.811 67.4672 263.28 67.3286C263.749 67.1899 264.267 67.1206 264.832 67.1206C265.397 67.1206 265.915 67.1899 266.384 67.3286C266.853 67.4672 267.253 67.6646 267.584 67.9206C267.925 68.1659 268.192 68.4646 268.384 68.8166C268.576 69.1686 268.672 69.5579 268.672 69.9846C268.672 70.5286 268.528 71.0032 268.24 71.4086C267.963 71.8032 267.579 72.1232 267.088 72.3686C267.664 72.6139 268.117 72.9606 268.448 73.4086C268.789 73.8459 268.96 74.3846 268.96 75.0246C268.96 75.4939 268.853 75.9206 268.64 76.3046C268.437 76.6779 268.149 76.9979 267.776 77.2646C267.413 77.5312 266.981 77.7339 266.48 77.8726C265.979 78.0219 265.429 78.0966 264.832 78.0966C264.235 78.0966 263.68 78.0219 263.168 77.8726C262.667 77.7339 262.229 77.5312 261.856 77.2646C261.493 76.9979 261.205 76.6779 260.992 76.3046C260.789 75.9206 260.688 75.4939 260.688 75.0246ZM262.88 74.8006C262.88 75.3126 263.061 75.7072 263.424 75.9846C263.787 76.2619 264.251 76.4006 264.816 76.4006C265.392 76.4006 265.856 76.2619 266.208 75.9846C266.571 75.7072 266.752 75.3126 266.752 74.8006C266.752 74.3099 266.571 73.9259 266.208 73.6486C265.856 73.3606 265.397 73.2166 264.832 73.2166C264.256 73.2166 263.787 73.3606 263.424 73.6486C263.061 73.9259 262.88 74.3099 262.88 74.8006ZM263.2 70.2086C263.2 70.6566 263.349 71.0032 263.648 71.2486C263.957 71.4832 264.352 71.6006 264.832 71.6006C265.323 71.6006 265.717 71.4832 266.016 71.2486C266.325 71.0032 266.48 70.6566 266.48 70.2086C266.48 69.7712 266.331 69.4299 266.032 69.1846C265.733 68.9392 265.333 68.8166 264.832 68.8166C264.331 68.8166 263.931 68.9392 263.632 69.1846C263.344 69.4299 263.2 69.7712 263.2 70.2086Z" fill="#F04438"/>
<path d="M126.56 93.1198L119.56 100.12C119.519 100.161 119.471 100.193 119.418 100.215C119.365 100.237 119.308 100.248 119.25 100.248C119.193 100.248 119.136 100.237 119.083 100.215C119.03 100.193 118.981 100.161 118.941 100.12L115.878 97.0573C115.796 96.9752 115.75 96.8639 115.75 96.7478C115.75 96.6317 115.796 96.5204 115.878 96.4383C115.96 96.3562 116.072 96.3101 116.188 96.3101C116.304 96.3101 116.415 96.3562 116.497 96.4383L119.25 99.1918L125.941 92.5008C126.023 92.4187 126.134 92.3726 126.25 92.3726C126.366 92.3726 126.478 92.4187 126.56 92.5008C126.642 92.5829 126.688 92.6942 126.688 92.8103C126.688 92.9264 126.642 93.0377 126.56 93.1198Z" fill="#51AF7D"/>
<path d="M162.56 93.1198L155.56 100.12C155.519 100.161 155.471 100.193 155.418 100.215C155.365 100.237 155.308 100.248 155.25 100.248C155.193 100.248 155.136 100.237 155.083 100.215C155.03 100.193 154.981 100.161 154.941 100.12L151.878 97.0573C151.796 96.9752 151.75 96.8639 151.75 96.7478C151.75 96.6317 151.796 96.5204 151.878 96.4383C151.96 96.3562 152.072 96.3101 152.188 96.3101C152.304 96.3101 152.415 96.3562 152.497 96.4383L155.25 99.1918L161.941 92.5008C162.023 92.4187 162.134 92.3726 162.25 92.3726C162.366 92.3726 162.478 92.4187 162.56 92.5008C162.642 92.5829 162.688 92.6942 162.688 92.8103C162.688 92.9264 162.642 93.0377 162.56 93.1198Z" fill="#51AF7D"/>
<path d="M198.56 93.1198L191.56 100.12C191.519 100.161 191.471 100.193 191.418 100.215C191.365 100.237 191.308 100.248 191.25 100.248C191.193 100.248 191.136 100.237 191.083 100.215C191.03 100.193 190.981 100.161 190.941 100.12L187.878 97.0573C187.796 96.9752 187.75 96.8639 187.75 96.7478C187.75 96.6317 187.796 96.5204 187.878 96.4383C187.96 96.3562 188.072 96.3101 188.188 96.3101C188.304 96.3101 188.415 96.3562 188.497 96.4383L191.25 99.1918L197.941 92.5008C198.023 92.4187 198.134 92.3726 198.25 92.3726C198.366 92.3726 198.478 92.4187 198.56 92.5008C198.642 92.5829 198.688 92.6942 198.688 92.8103C198.688 92.9264 198.642 93.0377 198.56 93.1198Z" fill="#51AF7D"/>
<path d="M233.247 99.5008C233.288 99.5414 233.32 99.5897 233.342 99.6428C233.364 99.6959 233.375 99.7528 233.375 99.8103C233.375 99.8678 233.364 99.9247 233.342 99.9778C233.32 100.031 233.288 100.079 233.247 100.12C233.207 100.16 233.158 100.193 233.105 100.215C233.052 100.237 232.995 100.248 232.938 100.248C232.88 100.248 232.823 100.237 232.77 100.215C232.717 100.193 232.669 100.16 232.628 100.12L229 96.4913L225.372 100.12C225.29 100.202 225.179 100.248 225.063 100.248C224.947 100.248 224.835 100.202 224.753 100.12C224.671 100.038 224.625 99.9264 224.625 99.8103C224.625 99.6942 224.671 99.5829 224.753 99.5008L228.382 95.8728L224.753 92.2448C224.671 92.1627 224.625 92.0514 224.625 91.9353C224.625 91.8192 224.671 91.7079 224.753 91.6258C224.835 91.5437 224.947 91.4976 225.063 91.4976C225.179 91.4976 225.29 91.5437 225.372 91.6258L229 95.2543L232.628 91.6258C232.71 91.5437 232.822 91.4976 232.938 91.4976C233.054 91.4976 233.165 91.5437 233.247 91.6258C233.329 91.7079 233.375 91.8192 233.375 91.9353C233.375 92.0514 233.329 92.1627 233.247 92.2448L229.619 95.8728L233.247 99.5008Z" fill="#F04438"/>
<path d="M269.247 99.5008C269.288 99.5414 269.32 99.5897 269.342 99.6428C269.364 99.6959 269.375 99.7528 269.375 99.8103C269.375 99.8678 269.364 99.9247 269.342 99.9778C269.32 100.031 269.288 100.079 269.247 100.12C269.207 100.16 269.158 100.193 269.105 100.215C269.052 100.237 268.995 100.248 268.938 100.248C268.88 100.248 268.823 100.237 268.77 100.215C268.717 100.193 268.669 100.16 268.628 100.12L265 96.4913L261.372 100.12C261.29 100.202 261.179 100.248 261.063 100.248C260.947 100.248 260.835 100.202 260.753 100.12C260.671 100.038 260.625 99.9264 260.625 99.8103C260.625 99.6942 260.671 99.5829 260.753 99.5008L264.382 95.8728L260.753 92.2448C260.671 92.1627 260.625 92.0514 260.625 91.9353C260.625 91.8192 260.671 91.7079 260.753 91.6258C260.835 91.5437 260.947 91.4976 261.063 91.4976C261.179 91.4976 261.29 91.5437 261.372 91.6258L265 95.2543L268.628 91.6258C268.71 91.5437 268.822 91.4976 268.938 91.4976C269.054 91.4976 269.165 91.5437 269.247 91.6258C269.329 91.7079 269.375 91.8192 269.375 91.9353C269.375 92.0514 269.329 92.1627 269.247 92.2448L265.619 95.8728L269.247 99.5008Z" fill="#F04438"/>
<path d="M306.56 93.1198L299.56 100.12C299.519 100.161 299.471 100.193 299.418 100.215C299.365 100.237 299.308 100.248 299.25 100.248C299.193 100.248 299.136 100.237 299.083 100.215C299.03 100.193 298.981 100.161 298.941 100.12L295.878 97.0573C295.796 96.9752 295.75 96.8639 295.75 96.7478C295.75 96.6317 295.796 96.5204 295.878 96.4383C295.96 96.3562 296.072 96.3101 296.188 96.3101C296.304 96.3101 296.415 96.3562 296.497 96.4383L299.25 99.1918L305.941 92.5008C306.023 92.4187 306.134 92.3726 306.25 92.3726C306.366 92.3726 306.478 92.4187 306.56 92.5008C306.642 92.5829 306.688 92.6942 306.688 92.8103C306.688 92.9264 306.642 93.0377 306.56 93.1198Z" fill="#51AF7D"/>
<defs>
<filter id="filter0_i_106_4068" x="107" y="11.8617" width="31.8726" height="33.0109" filterUnits="userSpaceOnUse" color-interpolation-filters="sRGB">
<feFlood flood-opacity="0" result="BackgroundImageFix"/>
<feBlend mode="normal" in="SourceGraphic" in2="BackgroundImageFix" result="shape"/>
<feColorMatrix in="SourceAlpha" type="matrix" values="0 0 0 0 0 0 0 0 0 0 0 0 0 0 0 0 0 0 127 0" result="hardAlpha"/>
<feOffset dy="-1.1383"/>
<feGaussianBlur stdDeviation="0.853724"/>
<feComposite in2="hardAlpha" operator="arithmetic" k2="-1" k3="1"/>
<feColorMatrix type="matrix" values="0 0 0 0 0.579128 0 0 0 0 0.686968 0 0 0 0 0.718013 0 0 0 0.53 0"/>
<feBlend mode="normal" in2="shape" result="effect1_innerShadow_106_4068"/>
</filter>
<filter id="filter1_f_106_4068" x="108.992" y="13.8535" width="13.9444" height="11.9522" filterUnits="userSpaceOnUse" color-interpolation-filters="sRGB">
<feFlood flood-opacity="0" result="BackgroundImageFix"/>
<feBlend mode="normal" in="SourceGraphic" in2="BackgroundImageFix" result="shape"/>
<feGaussianBlur stdDeviation="1.42287" result="effect1_foregroundBlur_106_4068"/>
</filter>
<filter id="filter2_i_106_4068" x="143.426" y="11.8617" width="31.8726" height="33.0109" filterUnits="userSpaceOnUse" color-interpolation-filters="sRGB">
<feFlood flood-opacity="0" result="BackgroundImageFix"/>
<feBlend mode="normal" in="SourceGraphic" in2="BackgroundImageFix" result="shape"/>
<feColorMatrix in="SourceAlpha" type="matrix" values="0 0 0 0 0 0 0 0 0 0 0 0 0 0 0 0 0 0 127 0" result="hardAlpha"/>
<feOffset dy="-1.1383"/>
<feGaussianBlur stdDeviation="0.853724"/>
<feComposite in2="hardAlpha" operator="arithmetic" k2="-1" k3="1"/>
<feColorMatrix type="matrix" values="0 0 0 0 0.579128 0 0 0 0 0.686968 0 0 0 0 0.718013 0 0 0 0.53 0"/>
<feBlend mode="normal" in2="shape" result="effect1_innerShadow_106_4068"/>
</filter>
<filter id="filter3_f_106_4068" x="145.418" y="13.8535" width="13.9444" height="11.9522" filterUnits="userSpaceOnUse" color-interpolation-filters="sRGB">
<feFlood flood-opacity="0" result="BackgroundImageFix"/>
<feBlend mode="normal" in="SourceGraphic" in2="BackgroundImageFix" result="shape"/>
<feGaussianBlur stdDeviation="1.42287" result="effect1_foregroundBlur_106_4068"/>
</filter>
<filter id="filter4_i_106_4068" x="179.851" y="11.8617" width="31.8726" height="33.0109" filterUnits="userSpaceOnUse" color-interpolation-filters="sRGB">
<feFlood flood-opacity="0" result="BackgroundImageFix"/>
<feBlend mode="normal" in="SourceGraphic" in2="BackgroundImageFix" result="shape"/>
<feColorMatrix in="SourceAlpha" type="matrix" values="0 0 0 0 0 0 0 0 0 0 0 0 0 0 0 0 0 0 127 0" result="hardAlpha"/>
<feOffset dy="-1.1383"/>
<feGaussianBlur stdDeviation="0.853724"/>
<feComposite in2="hardAlpha" operator="arithmetic" k2="-1" k3="1"/>
<feColorMatrix type="matrix" values="0 0 0 0 0.579128 0 0 0 0 0.686968 0 0 0 0 0.718013 0 0 0 0.53 0"/>
<feBlend mode="normal" in2="shape" result="effect1_innerShadow_106_4068"/>
</filter>
<filter id="filter5_f_106_4068" x="181.843" y="13.8535" width="13.9444" height="11.9522" filterUnits="userSpaceOnUse" color-interpolation-filters="sRGB">
<feFlood flood-opacity="0" result="BackgroundImageFix"/>
<feBlend mode="normal" in="SourceGraphic" in2="BackgroundImageFix" result="shape"/>
<feGaussianBlur stdDeviation="1.42287" result="effect1_foregroundBlur_106_4068"/>
</filter>
<filter id="filter6_i_106_4068" x="216.276" y="11.8617" width="31.8726" height="33.0109" filterUnits="userSpaceOnUse" color-interpolation-filters="sRGB">
<feFlood flood-opacity="0" result="BackgroundImageFix"/>
<feBlend mode="normal" in="SourceGraphic" in2="BackgroundImageFix" result="shape"/>
<feColorMatrix in="SourceAlpha" type="matrix" values="0 0 0 0 0 0 0 0 0 0 0 0 0 0 0 0 0 0 127 0" result="hardAlpha"/>
<feOffset dy="-1.1383"/>
<feGaussianBlur stdDeviation="0.853724"/>
<feComposite in2="hardAlpha" operator="arithmetic" k2="-1" k3="1"/>
<feColorMatrix type="matrix" values="0 0 0 0 0.579128 0 0 0 0 0.686968 0 0 0 0 0.718013 0 0 0 0.53 0"/>
<feBlend mode="normal" in2="shape" result="effect1_innerShadow_106_4068"/>
</filter>
<filter id="filter7_f_106_4068" x="218.269" y="13.8535" width="13.9444" height="11.9522" filterUnits="userSpaceOnUse" color-interpolation-filters="sRGB">
<feFlood flood-opacity="0" result="BackgroundImageFix"/>
<feBlend mode="normal" in="SourceGraphic" in2="BackgroundImageFix" result="shape"/>
<feGaussianBlur stdDeviation="1.42287" result="effect1_foregroundBlur_106_4068"/>
</filter>
<filter id="filter8_i_106_4068" x="252.702" y="11.8617" width="31.8726" height="33.0109" filterUnits="userSpaceOnUse" color-interpolation-filters="sRGB">
<feFlood flood-opacity="0" result="BackgroundImageFix"/>
<feBlend mode="normal" in="SourceGraphic" in2="BackgroundImageFix" result="shape"/>
<feColorMatrix in="SourceAlpha" type="matrix" values="0 0 0 0 0 0 0 0 0 0 0 0 0 0 0 0 0 0 127 0" result="hardAlpha"/>
<feOffset dy="-1.1383"/>
<feGaussianBlur stdDeviation="0.853724"/>
<feComposite in2="hardAlpha" operator="arithmetic" k2="-1" k3="1"/>
<feColorMatrix type="matrix" values="0 0 0 0 0.579128 0 0 0 0 0.686968 0 0 0 0 0.718013 0 0 0 0.53 0"/>
<feBlend mode="normal" in2="shape" result="effect1_innerShadow_106_4068"/>
</filter>
<filter id="filter9_f_106_4068" x="254.694" y="13.8535" width="13.9444" height="11.9522" filterUnits="userSpaceOnUse" color-interpolation-filters="sRGB">
<feFlood flood-opacity="0" result="BackgroundImageFix"/>
<feBlend mode="normal" in="SourceGraphic" in2="BackgroundImageFix" result="shape"/>
<feGaussianBlur stdDeviation="1.42287" result="effect1_foregroundBlur_106_4068"/>
</filter>
<filter id="filter10_i_106_4068" x="289.127" y="11.8617" width="31.8726" height="33.0109" filterUnits="userSpaceOnUse" color-interpolation-filters="sRGB">
<feFlood flood-opacity="0" result="BackgroundImageFix"/>
<feBlend mode="normal" in="SourceGraphic" in2="BackgroundImageFix" result="shape"/>
<feColorMatrix in="SourceAlpha" type="matrix" values="0 0 0 0 0 0 0 0 0 0 0 0 0 0 0 0 0 0 127 0" result="hardAlpha"/>
<feOffset dy="-1.1383"/>
<feGaussianBlur stdDeviation="0.853724"/>
<feComposite in2="hardAlpha" operator="arithmetic" k2="-1" k3="1"/>
<feColorMatrix type="matrix" values="0 0 0 0 0.579128 0 0 0 0 0.686968 0 0 0 0 0.718013 0 0 0 0.53 0"/>
<feBlend mode="normal" in2="shape" result="effect1_innerShadow_106_4068"/>
</filter>
<filter id="filter11_f_106_4068" x="291.12" y="13.8535" width="13.9444" height="11.9522" filterUnits="userSpaceOnUse" color-interpolation-filters="sRGB">
<feFlood flood-opacity="0" result="BackgroundImageFix"/>
<feBlend mode="normal" in="SourceGraphic" in2="BackgroundImageFix" result="shape"/>
<feGaussianBlur stdDeviation="1.42287" result="effect1_foregroundBlur_106_4068"/>
</filter>
<linearGradient id="paint0_linear_106_4068" x1="120.042" y1="12.055" x2="124.693" y2="40.4996" gradientUnits="userSpaceOnUse">
<stop stop-color="#00C6FF"/>
<stop offset="0.489927" stop-color="#4690F9"/>
<stop offset="1" stop-color="#8A01FF"/>
</linearGradient>
<linearGradient id="paint1_linear_106_4068" x1="161.464" y1="11.7308" x2="161.464" y2="40.5532" gradientUnits="userSpaceOnUse">
<stop stop-color="#00C6FF"/>
<stop offset="0.489927" stop-color="#4690F9"/>
<stop offset="1" stop-color="#8A01FF"/>
</linearGradient>
<linearGradient id="paint2_linear_106_4068" x1="194.083" y1="11.5686" x2="198.514" y2="40.0484" gradientUnits="userSpaceOnUse">
<stop stop-color="#00C6FF"/>
<stop offset="0.489927" stop-color="#4690F9"/>
<stop offset="1" stop-color="#8A01FF"/>
</linearGradient>
<linearGradient id="paint3_linear_106_4068" x1="234.386" y1="11.9963" x2="230.626" y2="40.5724" gradientUnits="userSpaceOnUse">
<stop stop-color="#00C6FF"/>
<stop offset="0.489927" stop-color="#4690F9"/>
<stop offset="1" stop-color="#8A01FF"/>
</linearGradient>
<linearGradient id="paint4_linear_106_4068" x1="268.734" y1="11.7308" x2="268.734" y2="40.5532" gradientUnits="userSpaceOnUse">
<stop stop-color="#00C6FF"/>
<stop offset="0.489927" stop-color="#4690F9"/>
<stop offset="1" stop-color="#8A01FF"/>
</linearGradient>
<linearGradient id="paint5_linear_106_4068" x1="307.948" y1="12.0183" x2="303.79" y2="40.5392" gradientUnits="userSpaceOnUse">
<stop stop-color="#00C6FF"/>
<stop offset="0.489927" stop-color="#4690F9"/>
<stop offset="1" stop-color="#8A01FF"/>
</linearGradient>
<linearGradient id="paint6_linear_106_4068" x1="155.13" y1="49.115" x2="166.524" y2="113.998" gradientUnits="userSpaceOnUse">
<stop stop-color="#00C6FF"/>
<stop offset="0.489927" stop-color="#4690F9"/>
<stop offset="1" stop-color="#8A01FF"/>
</linearGradient>
</defs>
</svg>
