<?xml version="1.0" encoding="UTF-8" standalone="no"?>
<!DOCTYPE svg PUBLIC "-//W3C//DTD SVG 1.1//EN"
 "http://www.w3.org/Graphics/SVG/1.1/DTD/svg11.dtd">
<!-- Generated by graphviz version 2.43.0 (0)
 -->
<!-- Title: betedra_arch_poster Pages: 1 -->
<svg width="1122pt" height="478pt"
 viewBox="0.00 0.00 1122.00 477.64" xmlns="http://www.w3.org/2000/svg" xmlns:xlink="http://www.w3.org/1999/xlink">
<g id="graph0" class="graph" transform="scale(1 1) rotate(0) translate(4 473.64)">
<title>betedra_arch_poster</title>
<polygon fill="white" stroke="transparent" points="-4,4 -4,-473.64 1118,-473.64 1118,4 -4,4"/>
<g id="clust1" class="cluster">
<title>cluster_client</title>
<polygon fill="white" stroke="#cbd5e1" points="8,-281.64 8,-356.64 314,-356.64 314,-281.64 8,-281.64"/>
<text text-anchor="middle" x="161" y="-341.44" font-family="Times,serif" font-size="14.00">Client</text>
</g>
<g id="clust2" class="cluster">
<title>cluster_chain</title>
<polygon fill="white" stroke="#93c5fd" points="425,-332.64 425,-461.64 919,-461.64 919,-332.64 425,-332.64"/>
<text text-anchor="middle" x="672" y="-446.44" font-family="Times,serif" font-size="14.00">Hedera (EVM)</text>
</g>
<g id="clust3" class="cluster">
<title>cluster_oracles</title>
<polygon fill="white" stroke="#86efac" points="748,-195.64 748,-324.64 923,-324.64 923,-195.64 748,-195.64"/>
<text text-anchor="middle" x="835.5" y="-309.44" font-family="Times,serif" font-size="14.00">Oracles / Randomness</text>
</g>
<g id="clust4" class="cluster">
<title>cluster_off</title>
<polygon fill="white" stroke="#f59e0b" points="437.5,-50.64 437.5,-187.64 1106,-187.64 1106,-50.64 437.5,-50.64"/>
<text text-anchor="middle" x="771.75" y="-172.44" font-family="Times,serif" font-size="14.00">Off&#45;chain Services</text>
</g>
<!-- Wallet -->
<g id="node1" class="node">
<title>Wallet</title>
<path fill="#f8fafc" stroke="#0b1020" d="M150,-325.64C150,-325.64 28,-325.64 28,-325.64 22,-325.64 16,-319.64 16,-313.64 16,-313.64 16,-301.64 16,-301.64 16,-295.64 22,-289.64 28,-289.64 28,-289.64 150,-289.64 150,-289.64 156,-289.64 162,-295.64 162,-301.64 162,-301.64 162,-313.64 162,-313.64 162,-319.64 156,-325.64 150,-325.64"/>
<text text-anchor="middle" x="89" y="-310.84" font-family="Helvetica,sans-Serif" font-size="11.00">Player Wallet</text>
<text text-anchor="middle" x="89" y="-298.84" font-family="Helvetica,sans-Serif" font-size="11.00">(HashPack / MetaMask)</text>
</g>
<!-- Frontend -->
<g id="node2" class="node">
<title>Frontend</title>
<path fill="#f8fafc" stroke="#0b1020" d="M294,-325.64C294,-325.64 211,-325.64 211,-325.64 205,-325.64 199,-319.64 199,-313.64 199,-313.64 199,-301.64 199,-301.64 199,-295.64 205,-289.64 211,-289.64 211,-289.64 294,-289.64 294,-289.64 300,-289.64 306,-295.64 306,-301.64 306,-301.64 306,-313.64 306,-313.64 306,-319.64 300,-325.64 294,-325.64"/>
<text text-anchor="middle" x="252.5" y="-310.84" font-family="Helvetica,sans-Serif" font-size="11.00">Next.js Frontend</text>
<text text-anchor="middle" x="252.5" y="-298.84" font-family="Helvetica,sans-Serif" font-size="11.00">(Vercel)</text>
</g>
<!-- Wallet&#45;&gt;Frontend -->
<g id="edge1" class="edge">
<title>Wallet&#45;&gt;Frontend</title>
<path fill="none" stroke="black" d="M162.25,-307.64C171.06,-307.64 180.01,-307.64 188.67,-307.64"/>
<polygon fill="black" stroke="black" points="188.68,-311.14 198.68,-307.64 188.68,-304.14 188.68,-311.14"/>
</g>
<!-- Prediction -->
<g id="node3" class="node">
<title>Prediction</title>
<path fill="#f8fafc" stroke="#0b1020" d="M594,-376.64C594,-376.64 445,-376.64 445,-376.64 439,-376.64 433,-370.64 433,-364.64 433,-364.64 433,-352.64 433,-352.64 433,-346.64 439,-340.64 445,-340.64 445,-340.64 594,-340.64 594,-340.64 600,-340.64 606,-346.64 606,-352.64 606,-352.64 606,-364.64 606,-364.64 606,-370.64 600,-376.64 594,-376.64"/>
<text text-anchor="middle" x="519.5" y="-361.84" font-family="Helvetica,sans-Serif" font-size="11.00">BetedraPrediction</text>
<text text-anchor="middle" x="519.5" y="-349.84" font-family="Helvetica,sans-Serif" font-size="11.00">Start • Lock • Close • Settle</text>
</g>
<!-- Wallet&#45;&gt;Prediction -->
<g id="edge8" class="edge">
<title>Wallet&#45;&gt;Prediction</title>
<path fill="none" stroke="black" d="M156.55,-325.69C170.5,-329.03 185.17,-332.23 199,-334.64 273.5,-347.68 359,-353.64 422.79,-356.36"/>
<polygon fill="black" stroke="black" points="422.71,-359.86 432.84,-356.77 422.99,-352.87 422.71,-359.86"/>
<text text-anchor="middle" x="252.5" y="-352.44" font-family="Times,serif" font-size="14.00">tx</text>
</g>
<!-- Lotto -->
<g id="node4" class="node">
<title>Lotto</title>
<path fill="#f8fafc" stroke="#0b1020" d="M579,-430.64C579,-430.64 460,-430.64 460,-430.64 454,-430.64 448,-424.64 448,-418.64 448,-418.64 448,-406.64 448,-406.64 448,-400.64 454,-394.64 460,-394.64 460,-394.64 579,-394.64 579,-394.64 585,-394.64 591,-400.64 591,-406.64 591,-406.64 591,-418.64 591,-418.64 591,-424.64 585,-430.64 579,-430.64"/>
<text text-anchor="middle" x="519.5" y="-415.84" font-family="Helvetica,sans-Serif" font-size="11.00">Lotto Contract</text>
<text text-anchor="middle" x="519.5" y="-403.84" font-family="Helvetica,sans-Serif" font-size="11.00">Tickets • Draw • Claim</text>
</g>
<!-- Wallet&#45;&gt;Lotto -->
<g id="edge9" class="edge">
<title>Wallet&#45;&gt;Lotto</title>
<path fill="none" stroke="black" d="M116.51,-325.84C137.83,-339.56 169.08,-357.68 199,-367.64 277.57,-393.82 371.95,-404.77 437.67,-409.35"/>
<polygon fill="black" stroke="black" points="437.76,-412.86 447.97,-410.03 438.22,-405.88 437.76,-412.86"/>
<text text-anchor="middle" x="252.5" y="-398.44" font-family="Times,serif" font-size="14.00">tx</text>
</g>
<!-- Frontend&#45;&gt;Prediction -->
<g id="edge6" class="edge">
<title>Frontend&#45;&gt;Prediction</title>
<path fill="none" stroke="black" d="M270.72,-289.57C283.94,-277.09 303.38,-261.53 324,-254.64 362.36,-241.83 377.65,-239.12 415,-254.64 452.45,-270.21 483.36,-306.65 501.37,-331.97"/>
<polygon fill="black" stroke="black" points="498.63,-334.17 507.19,-340.41 504.39,-330.19 498.63,-334.17"/>
<text text-anchor="middle" x="369.5" y="-258.44" font-family="Times,serif" font-size="14.00">enter / claim</text>
</g>
<!-- Frontend&#45;&gt;Lotto -->
<g id="edge7" class="edge">
<title>Frontend&#45;&gt;Lotto</title>
<path fill="none" stroke="black" d="M289.32,-325.79C323.58,-342.7 376.98,-367.9 425,-385.64 430.43,-387.65 436.09,-389.61 441.8,-391.48"/>
<polygon fill="black" stroke="black" points="440.87,-394.86 451.46,-394.57 443,-388.19 440.87,-394.86"/>
<text text-anchor="middle" x="369.5" y="-383.44" font-family="Times,serif" font-size="14.00">buy / claim</text>
</g>
<!-- Vault -->
<g id="node5" class="node">
<title>Vault</title>
<path fill="#f8fafc" stroke="#0b1020" d="M899,-403.64C899,-403.64 772,-403.64 772,-403.64 766,-403.64 760,-397.64 760,-391.64 760,-391.64 760,-379.64 760,-379.64 760,-373.64 766,-367.64 772,-367.64 772,-367.64 899,-367.64 899,-367.64 905,-367.64 911,-373.64 911,-379.64 911,-379.64 911,-391.64 911,-391.64 911,-397.64 905,-403.64 899,-403.64"/>
<text text-anchor="middle" x="835.5" y="-388.84" font-family="Helvetica,sans-Serif" font-size="11.00">Vault / Bank</text>
<text text-anchor="middle" x="835.5" y="-376.84" font-family="Helvetica,sans-Serif" font-size="11.00">Stakes • Payouts • Fees</text>
</g>
<!-- Prediction&#45;&gt;Vault -->
<g id="edge2" class="edge">
<title>Prediction&#45;&gt;Vault</title>
<path fill="none" stroke="black" d="M606.3,-366.02C650.86,-369.85 705.12,-374.52 749.56,-378.34"/>
<polygon fill="black" stroke="black" points="749.49,-381.85 759.75,-379.22 750.09,-374.87 749.49,-381.85"/>
</g>
<!-- Pyth -->
<g id="node6" class="node">
<title>Pyth</title>
<path fill="#f8fafc" stroke="#0b1020" d="M880,-239.64C880,-239.64 791,-239.64 791,-239.64 785,-239.64 779,-233.64 779,-227.64 779,-227.64 779,-215.64 779,-215.64 779,-209.64 785,-203.64 791,-203.64 791,-203.64 880,-203.64 880,-203.64 886,-203.64 892,-209.64 892,-215.64 892,-215.64 892,-227.64 892,-227.64 892,-233.64 886,-239.64 880,-239.64"/>
<text text-anchor="middle" x="835.5" y="-224.84" font-family="Helvetica,sans-Serif" font-size="11.00">Pyth Oracle</text>
<text text-anchor="middle" x="835.5" y="-212.84" font-family="Helvetica,sans-Serif" font-size="11.00">HBAR/USDC Price</text>
</g>
<!-- Prediction&#45;&gt;Pyth -->
<g id="edge10" class="edge">
<title>Prediction&#45;&gt;Pyth</title>
<path fill="none" stroke="black" d="M538.26,-340.39C557.64,-321.49 590.42,-292.43 624,-275.64 669.61,-252.84 725.74,-239.07 768.57,-231.14"/>
<polygon fill="black" stroke="black" points="769.37,-234.55 778.6,-229.35 768.14,-227.66 769.37,-234.55"/>
<text text-anchor="middle" x="682" y="-279.44" font-family="Times,serif" font-size="14.00">lock/close price</text>
</g>
<!-- Mirror -->
<g id="node9" class="node">
<title>Mirror</title>
<path fill="#f8fafc" stroke="#0b1020" d="M570,-94.64C570,-94.64 469,-94.64 469,-94.64 463,-94.64 457,-88.64 457,-82.64 457,-82.64 457,-70.64 457,-70.64 457,-64.64 463,-58.64 469,-58.64 469,-58.64 570,-58.64 570,-58.64 576,-58.64 582,-64.64 582,-70.64 582,-70.64 582,-82.64 582,-82.64 582,-88.64 576,-94.64 570,-94.64"/>
<text text-anchor="middle" x="519.5" y="-73.84" font-family="Helvetica,sans-Serif" font-size="11.00">Hedera Mirror Node</text>
</g>
<!-- Prediction&#45;&gt;Mirror -->
<g id="edge14" class="edge">
<title>Prediction&#45;&gt;Mirror</title>
<path fill="none" stroke="black" d="M433,-348.03C409.23,-340.69 386.03,-328.46 371.5,-308.14 316.84,-231.74 358.67,-170.18 425,-103.64 431.3,-97.32 438.97,-92.46 447.19,-88.72"/>
<polygon fill="black" stroke="black" points="448.66,-91.9 456.66,-84.95 446.08,-85.39 448.66,-91.9"/>
<text text-anchor="middle" x="369.5" y="-296.94" font-family="Times,serif" font-size="14.00">events</text>
</g>
<!-- Lotto&#45;&gt;Vault -->
<g id="edge3" class="edge">
<title>Lotto&#45;&gt;Vault</title>
<path fill="none" stroke="black" d="M591.36,-406.55C638.32,-402.51 700.17,-397.2 749.74,-392.93"/>
<polygon fill="black" stroke="black" points="750.13,-396.41 759.8,-392.07 749.53,-389.44 750.13,-396.41"/>
</g>
<!-- PRNG -->
<g id="node7" class="node">
<title>PRNG</title>
<path fill="#f8fafc" stroke="#0b1020" d="M890,-293.64C890,-293.64 781,-293.64 781,-293.64 775,-293.64 769,-287.64 769,-281.64 769,-281.64 769,-269.64 769,-269.64 769,-263.64 775,-257.64 781,-257.64 781,-257.64 890,-257.64 890,-257.64 896,-257.64 902,-263.64 902,-269.64 902,-269.64 902,-281.64 902,-281.64 902,-287.64 896,-293.64 890,-293.64"/>
<text text-anchor="middle" x="835.5" y="-278.84" font-family="Helvetica,sans-Serif" font-size="11.00">IPrngSystemContract</text>
<text text-anchor="middle" x="835.5" y="-266.84" font-family="Helvetica,sans-Serif" font-size="11.00">(PRNG Precompile)</text>
</g>
<!-- Lotto&#45;&gt;PRNG -->
<g id="edge11" class="edge">
<title>Lotto&#45;&gt;PRNG</title>
<path fill="none" stroke="black" d="M583.73,-394.6C591.34,-391.86 598.92,-388.87 606,-385.64 614.53,-381.76 615.75,-379.09 624,-374.64 677.33,-345.92 740.43,-316.87 783.54,-297.73"/>
<polygon fill="black" stroke="black" points="784.97,-300.93 792.7,-293.69 782.14,-294.53 784.97,-300.93"/>
<text text-anchor="middle" x="682" y="-378.44" font-family="Times,serif" font-size="14.00">draw seed</text>
</g>
<!-- Lotto&#45;&gt;Mirror -->
<g id="edge15" class="edge">
<title>Lotto&#45;&gt;Mirror</title>
<path fill="none" stroke="black" d="M447.84,-398.88C439.64,-395.41 431.8,-391.07 425,-385.64 386.37,-354.81 383.77,-336.02 371.5,-288.14 350.3,-205.44 363.81,-163.18 425,-103.64 431.4,-97.42 439.13,-92.61 447.38,-88.9"/>
<polygon fill="black" stroke="black" points="448.85,-92.08 456.87,-85.16 446.28,-85.57 448.85,-92.08"/>
<text text-anchor="middle" x="369.5" y="-276.94" font-family="Times,serif" font-size="14.00">events</text>
</g>
<!-- Cron -->
<g id="node8" class="node">
<title>Cron</title>
<path fill="#f8fafc" stroke="#0b1020" d="M581.5,-156.64C581.5,-156.64 457.5,-156.64 457.5,-156.64 451.5,-156.64 445.5,-150.64 445.5,-144.64 445.5,-144.64 445.5,-124.64 445.5,-124.64 445.5,-118.64 451.5,-112.64 457.5,-112.64 457.5,-112.64 581.5,-112.64 581.5,-112.64 587.5,-112.64 593.5,-118.64 593.5,-124.64 593.5,-124.64 593.5,-144.64 593.5,-144.64 593.5,-150.64 587.5,-156.64 581.5,-156.64"/>
<text text-anchor="middle" x="519.5" y="-143.84" font-family="Helvetica,sans-Serif" font-size="11.00">Cron Worker</text>
<text text-anchor="middle" x="519.5" y="-131.84" font-family="Helvetica,sans-Serif" font-size="11.00">5m: executeRound()</text>
<text text-anchor="middle" x="519.5" y="-119.84" font-family="Helvetica,sans-Serif" font-size="11.00">2m: updatePriceFeeds()</text>
</g>
<!-- Cron&#45;&gt;Prediction -->
<g id="edge12" class="edge">
<title>Cron&#45;&gt;Prediction</title>
<path fill="none" stroke="black" d="M519.5,-156.94C519.5,-197.94 519.5,-285.2 519.5,-330.32"/>
<polygon fill="black" stroke="black" points="516,-330.57 519.5,-340.57 523,-330.57 516,-330.57"/>
<text text-anchor="middle" x="509" y="-244.94" font-family="Times,serif" font-size="14.00">5m</text>
</g>
<!-- Cron&#45;&gt;Pyth -->
<g id="edge13" class="edge">
<title>Cron&#45;&gt;Pyth</title>
<path fill="none" stroke="black" d="M593.86,-153.26C636.61,-164.3 691.49,-178.8 740,-192.64 749.41,-195.33 759.31,-198.26 769.02,-201.18"/>
<polygon fill="black" stroke="black" points="768.06,-204.55 778.64,-204.1 770.09,-197.85 768.06,-204.55"/>
<text text-anchor="middle" x="682" y="-196.44" font-family="Times,serif" font-size="14.00">2m</text>
</g>
<!-- Indexer -->
<g id="node10" class="node">
<title>Indexer</title>
<path fill="#f8fafc" stroke="#0b1020" d="M877,-94.64C877,-94.64 794,-94.64 794,-94.64 788,-94.64 782,-88.64 782,-82.64 782,-82.64 782,-70.64 782,-70.64 782,-64.64 788,-58.64 794,-58.64 794,-58.64 877,-58.64 877,-58.64 883,-58.64 889,-64.64 889,-70.64 889,-70.64 889,-82.64 889,-82.64 889,-88.64 883,-94.64 877,-94.64"/>
<text text-anchor="middle" x="835.5" y="-73.84" font-family="Helvetica,sans-Serif" font-size="11.00">Indexer / Worker</text>
</g>
<!-- Mirror&#45;&gt;Indexer -->
<g id="edge4" class="edge">
<title>Mirror&#45;&gt;Indexer</title>
<path fill="none" stroke="black" d="M582.16,-76.64C636.86,-76.64 716.41,-76.64 771.51,-76.64"/>
<polygon fill="black" stroke="black" points="771.84,-80.14 781.84,-76.64 771.84,-73.14 771.84,-80.14"/>
</g>
<!-- DB -->
<g id="node11" class="node">
<title>DB</title>
<path fill="#f8fafc" stroke="#0b1020" d="M1086,-94.64C1086,-94.64 962,-94.64 962,-94.64 956,-94.64 950,-88.64 950,-82.64 950,-82.64 950,-70.64 950,-70.64 950,-64.64 956,-58.64 962,-58.64 962,-58.64 1086,-58.64 1086,-58.64 1092,-58.64 1098,-64.64 1098,-70.64 1098,-70.64 1098,-82.64 1098,-82.64 1098,-88.64 1092,-94.64 1086,-94.64"/>
<text text-anchor="middle" x="1024" y="-79.84" font-family="Helvetica,sans-Serif" font-size="11.00">Leaderboard DB</text>
<text text-anchor="middle" x="1024" y="-67.84" font-family="Helvetica,sans-Serif" font-size="11.00">(PnL, Win rate, Streaks)</text>
</g>
<!-- Indexer&#45;&gt;DB -->
<g id="edge5" class="edge">
<title>Indexer&#45;&gt;DB</title>
<path fill="none" stroke="black" d="M889.44,-76.64C904.96,-76.64 922.32,-76.64 939.26,-76.64"/>
<polygon fill="black" stroke="black" points="939.73,-80.14 949.73,-76.64 939.73,-73.14 939.73,-80.14"/>
</g>
<!-- DB&#45;&gt;Frontend -->
<g id="edge16" class="edge">
<title>DB&#45;&gt;Frontend</title>
<path fill="none" stroke="black" d="M973.97,-58.56C866.86,-22.27 607.05,47.94 425,-49.64 332.18,-99.4 281.02,-223.99 262.09,-279.82"/>
<polygon fill="black" stroke="black" points="258.73,-278.82 258.93,-289.41 265.38,-281.01 258.73,-278.82"/>
<text text-anchor="middle" x="682" y="-9.44" font-family="Times,serif" font-size="14.00">leaderboard API</text>
</g>
</g>
</svg>
